<svg width="1163" height="193" viewBox="0 0 1163 193" fill="none" xmlns="http://www.w3.org/2000/svg">
<g opacity="0.4">
<rect x="194.194" width="194.193" height="192.254" fill="#9F9995"/>
<rect x="775.693" width="194.193" height="192.254" fill="#242424"/>
<ellipse cx="679.137" cy="96.1271" rx="96.557" ry="96.1271" fill="#9F9995"/>
<path d="M97.0962 96.1273C97.0962 43.6277 53.6247 1.06836 -0.000213623 1.06836L-0.000222017 191.186C53.6246 191.186 97.0962 148.627 97.0962 96.1273Z" fill="#D6D2CC"/>
<path d="M1066.44 97.1953C1119.77 97.1953 1163 54.1578 1163 1.06827L969.886 1.06825C969.886 54.1578 1013.12 97.1953 1066.44 97.1953Z" fill="#D6D2CC"/>
<path d="M194.194 96.1273C194.194 43.6277 150.723 1.06836 97.0979 1.06836L97.0979 191.186C150.723 191.186 194.194 148.627 194.194 96.1273Z" fill="#343433"/>
<path d="M1066.44 192.254C1119.77 192.254 1163 149.695 1163 97.1954L969.886 97.1954C969.886 149.695 1013.12 192.254 1066.44 192.254Z" fill="#343433"/>
<path d="M582.58 192.254L388.387 192.254L582.58 0V192.254Z" fill="#474645"/>
</g>
</svg>
