<svg width="200" height="50" viewBox="0 0 200 50" fill="none" xmlns="http://www.w3.org/2000/svg">
<rect width="49.9506" height="49.9506" transform="matrix(1 -8.74228e-08 -8.74228e-08 -1 49.9507 49.9758)" fill="#9F9995"/>
<circle cx="24.9753" cy="24.9753" r="24.9753" transform="matrix(1 -8.74228e-08 -8.74228e-08 -1 149.852 49.9758)" fill="#9F9995"/>
<path d="M25 25C25 38.8071 13.8071 50 0 50L-6.55671e-06 3.27835e-06C13.8071 1.46777e-06 25 11.1929 25 25Z" fill="#D6D2CC"/>
<path d="M49.9282 25C49.9282 38.8071 38.7353 50 24.9282 50L24.9282 3.27835e-06C38.7353 1.46777e-06 49.9282 11.1929 49.9282 25Z" fill="#343433"/>
<path d="M149.852 0.0251999L99.9014 0.0252043L149.852 49.9758L149.852 0.0251999Z" fill="#474645"/>
</svg>
