<?xml version="1.0" encoding="utf-8"?>
<svg viewBox="175 35.004 350.001 490.002" width="350.001" height="490.002" xmlns="http://www.w3.org/2000/svg">
  <path d="m218.75 201.25c-24.121 0-43.75 19.629-43.75 43.75v140c0 24.121 19.629 43.75 43.75 43.75h34.996v34.27l-3.5586 21.273c-3.8867 20.598 13.559 41.219 34.535 40.703h183.04c20.977 0.47266 38.438-20.078 34.531-40.734l-3.5586-21.242v-290.43c15.254-5.4297 26.266-19.867 26.266-36.961 0-21.523-17.371-39.016-38.824-39.32-23.488-37.914-65.105-61.305-109.93-61.305-44.828 0-86.445 23.391-109.93 61.305-43.359 1.082-53.617 60.547-12.562 75.781v29.164zm26.238-66.379c0.41406-13.598 13.141-22.797 26.258-21.121 2.0664-0.25 4.0938-0.84375 5.707-2.2422 20.867-35.449 57.441-59.352 99.289-59.008 34.977 0 67.719 16.453 88.703 43.75h-1.1953c-15.59 0-30.098 8.3867-37.863 21.887-2.4062 4.1914-0.96094 9.5391 3.2266 11.949 4.1992 2.4062 9.543 0.96484 11.949-3.2266 4.6484-8.0859 13.34-13.113 22.688-13.113h21.875c26 0.41016 29.895 37.34 4.707 43.211-1.5547-0.12891-3.0859 0.66016-4.707 0.53906h-56.883c-14.477 0-26.25 11.773-26.25 26.25v37.973c0 7.582-5.4258 14.109-12.098 14.539-7.5312 0.64453-14.262-5.6367-14.148-13.137v-39.375c0-14.477-11.773-26.25-26.25-26.25h-17.492c-11.504 0.23047-11.508 17.281 0 17.5h17.492c4.8242 0 8.75 3.9258 8.75 8.75v39.375c-0.41016 17.34 15.582 32.102 32.793 30.602 15.957-1.0391 28.457-15.094 28.457-32.004v-37.973c0-4.8242 3.9258-8.75 8.75-8.75h52.492v280h-26.234c-4.832 0-8.75 3.918-8.75 8.75 0 4.832 3.918 8.75 8.75 8.75h27.578l2.4492 14.625c1.9336 10.293-6.7656 20.641-17.266 20.375h-183.04c-10.477 0.23438-19.215-10.047-17.27-20.344l2.4531-14.656h141.35c11.512-0.28516 11.52-17.246 0-17.5h-140v-35c0-4.832-3.918-8.75-8.75-8.75h-43.746c-14.477 0-26.25-11.773-26.25-26.25v-140c0-14.477 11.773-26.25 26.25-26.25h34.996v157.5c0.21875 11.438 17.27 11.566 17.5 0v-201.25h17.504c4.832 0 8.75-3.918 8.75-8.75 0-4.832-3.918-8.75-8.75-8.75h-20.129c-11.965 0.3125-24.289-10.457-23.637-22.629z"/>
</svg>