<?xml version="1.0" encoding="utf-8"?>
<svg viewBox="97.998 138.879 504.002 281.681" width="504.002" height="281.681" xmlns="http://www.w3.org/2000/svg">
  <path d="m195.44 379.12c0 5.875-4.7656 10.641-10.641 10.641-5.8789 0-10.641-4.7656-10.641-10.641 0-5.8789 4.7617-10.641 10.641-10.641 5.875 0 10.641 4.7617 10.641 10.641" style="fill: rgb(85, 85, 85);"/>
  <path d="m532 379.12c0 5.875-4.7656 10.641-10.641 10.641s-10.641-4.7656-10.641-10.641c0-5.8789 4.7656-10.641 10.641-10.641s10.641 4.7617 10.641 10.641" style="fill: rgb(85, 85, 85);"/>
  <path d="m257.6 284.48h44.801c3.9219 0 6.7188-3.3594 6.7188-6.7188v-75.043c0-3.9219-3.3594-6.7188-6.7188-6.7188h-44.801c-3.9219 0-6.7188 3.3594-6.7188 6.7188v75.039c-0.003906 3.9219 2.7969 6.7227 6.7188 6.7227zm2.2383-80.082h40.879v71.68h-40.879z" style="fill: rgb(85, 85, 85);"/>
  <path d="m255.36 310.8h49.84c2.2383 0 4.4805-2.2383 4.4805-4.4805 0-2.2383-2.2383-4.4805-4.4805-4.4805h-49.84c-2.2383 0-4.4805 2.2383-4.4805 4.4805 0 2.2383 1.6797 4.4805 4.4805 4.4805z" style="fill: rgb(85, 85, 85);"/>
  <path d="m255.36 330.96h49.84c2.2383 0 4.4805-2.2383 4.4805-4.4805 0-2.2383-2.2383-4.4805-4.4805-4.4805h-49.84c-2.2383 0-4.4805 2.2383-4.4805 4.4805 0 2.2383 1.6797 4.4805 4.4805 4.4805z" style="fill: rgb(85, 85, 85);"/>
  <path d="m162.96 284.48h51.52c3.9219 0 6.7188-3.3594 6.7188-6.7188v-75.043c0-3.9219-3.3594-6.7188-6.7188-6.7188h-8.9609c-2.8008 0-6.1602 1.6797-7.2812 4.4805l-40.32 76.16c-1.1211 1.6797-1.1211 3.9219 0 6.1602 1.1211 1.1211 2.8008 1.6797 5.043 1.6797zm42.559-80.082h7.2812v71.68h-44.801z" style="fill: rgb(85, 85, 85);"/>
  <path d="m567.28 201.04c-1.1211-3.3594-3.9219-5.6016-7.2812-5.6016l-198.8 0.003906c-3.3594 0-6.7188 2.2383-7.2812 5.6016l-10.641 33.602c-0.55859 2.2383-0.55859 3.9219 1.1211 5.6016 1.1211 1.6797 2.8008 2.2383 5.0391 2.2383h15.68v41.441c-3.9219 0-6.7188 3.3594-6.7188 6.7188v8.9609c0 3.9219 3.3594 6.7188 6.7188 6.7188h191.52c3.9219 0 6.7188-3.3594 6.7188-6.7188l0.003906-8.4062c0-3.9219-3.3594-6.7188-6.7188-6.7188v-41.441h15.68c2.2383 0 3.9219-1.1211 5.0391-2.2383 1.1211-1.6797 1.6797-3.3594 1.1211-5.6016zm-180.88 33.039 9.5195-29.68h24.641l-2.2383 29.68zm42.562-29.68h26.879v29.68h-29.121zm35.84 0h26.879l2.2383 29.68h-29.121zm38.078 29.68-2.2383-29.68h24.641l8.9609 29.68zm-141.12-29.68h24.641l-9.5195 29.68h-24.641zm192.64 94.082h-188.16v-5.0391h188.16zm-6.7188-14h-174.16v-41.441h174.16zm-3.918-50.402-8.9609-29.68h24.641l8.9609 29.68z" style="fill: rgb(85, 85, 85);"/>
  <path d="m595.28 155.68h-43.121v-10.078c0-3.9219-3.3594-6.7188-6.7188-6.7188l-91.84-0.003906c-3.9219 0-6.7188 3.3594-6.7188 6.7188v10.078l-70.004 0.003907v-10.078c0-3.9219-3.3594-6.7188-6.7188-6.7188h-45.359c-2.2383 0-4.4805 0.55859-6.7188 1.1211l-35.281 15.676h-80.082c-2.8008 0-6.1602 1.6797-7.2812 4.4805l-62.719 115.36c0 0.55859-1.1211 1.1211-1.6797 1.6797l-28.559 15.68c-2.8008 1.6797-4.4805 4.4805-4.4805 7.2812v76.16c0 3.9219 3.3594 6.7188 6.7188 6.7188h38.082c2.2383 21.281 20.16 37.52 42 37.52 21.84 0 39.762-16.801 42-37.52h252.56c2.2383 21.281 20.16 37.52 42 37.52s39.762-16.801 42-37.52h31.922c3.9219 0 6.7188-3.3594 6.7188-6.7188v-213.92c0-3.918-3.3594-6.7188-6.7188-6.7188zm-139.44-8.3984h87.922v7.8398h-87.922zm-133.84 0.55859c0.55859-0.55859 2.2383-0.55859 2.8008-0.55859h43.121v7.8398h-63.281zm271.04 16.238v9.5234h-395.36l5.0391-9.5195zm-353.92 18.48h82.32v192.64h-66.082l-15.68-52.078c0-1.1211-0.55859-2.8008-0.55859-3.3594zm-132.16 118.16 28.559-15.68c2.2383-1.1211 3.9219-3.3594 5.0391-5.0391l52.641-97.441h37.52v136.64c0 1.6797 0.55859 4.4805 1.1211 6.1602l14.559 49.281h-19.598c-2.2383-21.281-20.16-37.52-42-37.52-21.84 0-39.762 16.801-42 37.52h-35.84zm77.84 112c-18.48 0-33.602-15.121-33.602-33.602 0-18.48 15.121-33.602 33.602-33.602s33.602 15.121 33.602 33.602c-0.5625 18.484-15.121 33.602-33.602 33.602zm336.56 0c-18.48 0-33.602-15.121-33.602-33.602 0-18.48 15.121-33.602 33.602-33.602s33.602 15.121 33.602 33.602c-0.5625 18.484-15.68 33.602-33.602 33.602zm41.441-38.078c-2.2383-21.281-20.16-37.52-42-37.52-21.84 0-39.762 16.801-42 37.52h-148.96v-192.08h263.2v192.64h-30.238z" style="fill: rgb(85, 85, 85);"/>
</svg>