<svg id="Layer_1" data-name="Layer 1" xmlns="http://www.w3.org/2000/svg" viewBox="0 0 288 197"><title>hotel-via-logo</title><rect width="288" height="197" style="fill:#7d7470"/><path d="M86.77,147.88c-.09-1-.5-1.79-1.54-1.79a1.27,1.27,0,0,0-1.36,1.31c0,2.25,4,2.28,4,5.48a2.32,2.32,0,0,1-2.55,2.54c-1.56,0-2.5-1.14-2.53-2.81h1c0,1.17.59,1.9,1.65,1.9a1.43,1.43,0,0,0,1.47-1.64c0-2.26-4-2.53-4-5.37a2.23,2.23,0,0,1,2.4-2.32c1.44,0,2.38,1,2.46,2.7Z" style="fill:#fff"/><path d="M96.08,145.32l2.19,10H97.2l-.6-3H94.06l-.59,3H92.39l2.19-10Zm-1.87,6.1h2.24l-1.11-5.36h0Z" style="fill:#fff"/><polygon points="104.7 145.31 107.27 152.66 107.29 152.66 107.29 145.31 108.37 145.31 108.37 155.28 107.21 155.28 104.12 146.61 104.09 146.61 104.09 155.28 103.01 155.28 103.01 145.31 104.7 145.31" style="fill:#fff"/><polygon points="120.8 145.31 125.08 145.31 125.08 146.23 121.88 146.23 121.88 149.63 124.28 149.63 124.28 150.54 121.88 150.54 121.88 155.28 120.8 155.28 120.8 145.31" style="fill:#fff"/><path d="M130,145.32h2.4a2.48,2.48,0,0,1,2.73,2.58,2.39,2.39,0,0,1-1.6,2.44l1.69,4.95H134.1l-1.6-4.73-1.41.06v4.67H130Zm1.07,4.36H132c1.55,0,2.05-.61,2.05-1.73s-.5-1.72-2.05-1.72h-.94Z" style="fill:#fff"/><path d="M143.66,145.32l2.2,10h-1.08l-.59-3h-2.55l-.59,3H140l2.19-10Zm-1.86,6.1H144l-1.1-5.36h0Z" style="fill:#fff"/><polygon points="152.28 145.31 154.85 152.66 154.88 152.66 154.88 145.31 155.95 145.31 155.95 155.28 154.79 155.28 151.7 146.61 151.67 146.61 151.67 155.28 150.59 155.28 150.59 145.31 152.28 145.31" style="fill:#fff"/><path d="M165.57,148.33c-.14-1.58-.64-2.24-1.48-2.24-1.26,0-1.81,1.1-1.81,4.21s.55,4.21,1.81,4.21c1,0,1.59-.69,1.62-2.54h1.07c0,2.21-1,3.46-2.69,3.46s-2.89-1.36-2.89-5.13,1.11-5.12,2.89-5.12c1.48,0,2.39,1,2.56,3.15Z" style="fill:#fff"/><rect x="172.31" y="145.32" width="1.08" height="9.97" style="fill:#fff"/><path d="M182.69,147.88c-.08-1-.49-1.79-1.53-1.79a1.27,1.27,0,0,0-1.36,1.31c0,2.25,4,2.28,4,5.48a2.32,2.32,0,0,1-2.55,2.54c-1.56,0-2.5-1.14-2.53-2.81h1c0,1.17.58,1.9,1.65,1.9.9,0,1.47-.58,1.47-1.64,0-2.26-4-2.53-4-5.37a2.23,2.23,0,0,1,2.4-2.32c1.44,0,2.38,1,2.46,2.7Z" style="fill:#fff"/><path d="M193.19,148.33c-.13-1.58-.63-2.24-1.47-2.24-1.26,0-1.81,1.1-1.81,4.21s.55,4.21,1.81,4.21c1,0,1.58-.69,1.61-2.54h1.08c0,2.21-1,3.46-2.69,3.46s-2.89-1.36-2.89-5.13,1.11-5.12,2.89-5.12c1.47,0,2.39,1,2.55,3.15Z" style="fill:#fff"/><path d="M202.39,155.43c-1.68,0-2.81-1.41-2.81-5.13s1.13-5.12,2.81-5.12,2.82,1.41,2.82,5.12-1.13,5.13-2.82,5.13m0-9.34c-1,0-1.74.83-1.74,4.21s.78,4.21,1.74,4.21,1.74-.83,1.74-4.21-.77-4.21-1.74-4.21" style="fill:#fff"/><polygon points="50 132.04 50 114.13 53.08 114.13 53.08 121.42 56.35 121.42 56.35 114.13 59.42 114.13 59.42 132.04 56.35 132.04 56.35 124.1 53.08 124.1 53.08 132.04 50 132.04" style="fill:#fff"/><path d="M75.81,118.47c0-2.53,1.49-4.59,4.72-4.59s4.71,2.06,4.71,4.59v9.23c0,2.53-1.49,4.59-4.71,4.59s-4.72-2.06-4.72-4.59Zm3.08,9.15c0,1.34.4,2,1.64,2s1.63-.65,1.63-2v-9.07c0-1.34-.39-2-1.63-2s-1.64.65-1.64,2Z" style="fill:#fff"/><polygon points="103.41 116.81 100.44 116.81 100.44 114.13 109.47 114.13 109.47 116.81 106.49 116.81 106.49 132.04 103.41 132.04 103.41 116.81" style="fill:#fff"/><polygon points="124.69 132.04 124.69 114.13 132.92 114.13 132.92 116.81 127.76 116.81 127.76 121.42 131.73 121.42 131.73 124.1 127.76 124.1 127.76 129.36 133.27 129.36 133.27 132.04 124.69 132.04" style="fill:#fff"/><polygon points="148.96 132.04 148.96 114.13 152.04 114.13 152.04 129.36 156.88 129.36 156.88 132.04 148.96 132.04" style="fill:#fff"/><polygon points="190.32 114.13 193.34 114.13 189.6 132.04 186.52 132.04 182.78 114.13 185.8 114.13 188.03 126.56 188.09 126.56 190.32 114.13" style="fill:#fff"/><rect x="208.89" y="114.13" width="3.07" height="17.91" style="fill:#fff"/><path d="M230.56,132h-3l3.3-17.91h3.82L238,132h-3l-.54-4h-3.37Zm1-6.65H234l-1.21-7.69h0Z" style="fill:#fff"/><rect x="168.04" y="121.47" width="2.68" height="2.68" style="fill:#fff"/><polygon points="117.97 42.99 117.97 41.58 117.97 41.58 98.42 41.58 98.42 42.39 98.42 42.99 103.6 42.99 119.49 84.77 121.18 84.77 124.91 75.16 112.59 42.99 117.97 42.99" style="fill:#fff"/><polygon points="178.52 83.36 162.63 41.58 160.94 41.58 157.21 51.19 169.53 83.36 164.15 83.36 164.15 84.77 164.15 84.77 183.7 84.77 183.7 83.95 183.7 83.36 178.52 83.36" style="fill:#fff"/><polygon points="131.46 42.39 131.46 42.99 136.83 42.99 136.83 83.36 131.46 83.36 131.46 83.95 131.46 84.77 150.66 84.77 150.66 83.95 150.66 83.36 145.29 83.36 145.29 42.99 150.66 42.99 150.66 42.39 150.66 41.58 131.46 41.58 131.46 42.39" style="fill:#fff"/></svg>