<?xml version="1.0" encoding="UTF-8"?>
<svg id="Layer_1" data-name="Layer 1" xmlns="http://www.w3.org/2000/svg" viewBox="0 0 520 100">
  <defs>
    <style>
      .cls-1 {
        fill: gray;
      }
    </style>
  </defs>
  <g>
    <path class="cls-1" d="M431.27,25.01h13.81v52.07h-12.62l-2.27-5.13c-2.66,3.25-6.61,6.11-14.1,6.11-12.62,0-19.23-6.31-19.23-20.91V25.01h13.8v31.36c0,6.8,2.66,10.45,8.78,10.45,7.79,0,11.83-5.32,11.83-16.07V25.01Z"/>
    <path class="cls-1" d="M509.66,50.94c0,15.58-9.96,27.12-25.15,27.12-7,0-12.33-2.07-15.58-6.11v22.88h-13.8V25.01h12.42l1.87,4.73c3.16-3.35,8.09-5.72,15.09-5.72,15.19,0,25.15,11.34,25.15,26.92Zm-13.81,0c0-8.38-4.73-15.48-14-15.48s-14,7.1-14,15.48,4.73,15.68,14,15.68,14-7.3,14-15.68Z"/>
  </g>
  <g>
    <path d="M18.63,60.69v-24.55H9.66v-11.44h8.97V7.74h13.8V24.7h12.52v11.44h-12.52v23.27c0,4.54,1.78,6.9,6.61,6.9,1.97,0,4.04-.2,5.92-.89v11.44c-3.06,.59-5.62,.89-8.78,.89-11.83,0-17.55-6.21-17.55-17.06Z"/>
    <path d="M48.9,61.48c0-11.83,10.35-16.07,20.61-16.07s12.62-1.97,12.62-4.83c0-3.35-2.96-5.62-9.66-5.62-5.52,0-10.06,2.07-13.61,6.02l-7.89-7.79c4.44-5.62,12.42-9.47,22.68-9.47,13.51,0,21.5,6.31,21.5,17.45v27.02c0,2.47,.49,6.21,1.18,8.58h-12.42c-.79-1.38-1.38-3.65-1.58-5.32-2.46,3.84-7.4,6.31-14.79,6.31-10.75,0-18.64-5.33-18.64-16.27Zm33.23-4.34v-4.24c-1.68,1.68-3.85,2.17-11.73,2.17-4.93,0-7.89,2.37-7.89,5.92,0,4.04,2.47,6.31,7.79,6.31,7.1,0,11.83-4.54,11.83-10.16Z"/>
    <path d="M104.12,18.09V5.18h14.4v12.92h-14.4Zm.3,58.67V24.7h13.8v52.07h-13.8Z"/>
    <path d="M128.28,76.77V6.75h13.8V76.77h-13.8Z"/>
    <path d="M147.21,65.23l11.64-5.52c2.07,3.94,6.51,6.61,12.23,6.61s8.87-2.37,8.87-5.23c0-3.35-4.34-4.83-12.13-6.21-9.37-1.68-18.05-5.92-18.05-15.38,0-8.68,8.28-15.78,21.6-15.78,8.68,0,15.97,3.16,20.41,8.68l-8.78,7.4c-2.96-3.45-6.9-5.03-11.64-5.03-5.32,0-8.48,1.87-8.48,4.54,0,3.06,5.52,5.03,14.4,6.61,12.62,2.27,16.47,7.89,16.47,15.48,0,8.38-7.79,16.37-22.98,16.37-10.95,0-20.71-5.42-23.57-12.52Z"/>
    <path d="M197.29,50.64c0-13.71,9.27-26.92,27.31-26.92,10.95,0,18.34,4.54,22.09,12.72l-11.14,5.92c-2.07-4.34-5.62-7.2-10.95-7.2-8.48,0-13.51,6.9-13.51,15.48s4.73,15.68,13.51,15.68c5.82,0,9.17-2.86,11.24-7l11.04,5.62c-5.32,8.87-12.42,12.82-22.29,12.82-16.07,0-27.31-12.23-27.31-27.12Z"/>
    <path d="M250.24,61.48c0-11.83,10.35-16.07,20.61-16.07s12.62-1.97,12.62-4.83c0-3.35-2.96-5.62-9.66-5.62-5.52,0-10.06,2.07-13.61,6.02l-7.89-7.79c4.44-5.62,12.42-9.47,22.68-9.47,13.51,0,21.5,6.31,21.5,17.45v27.02c0,2.47,.49,6.21,1.18,8.58h-12.42c-.79-1.38-1.38-3.65-1.58-5.32-2.46,3.84-7.4,6.31-14.79,6.31-10.75,0-18.64-5.33-18.64-16.27Zm33.23-4.34v-4.24c-1.68,1.68-3.85,2.17-11.73,2.17-4.93,0-7.89,2.37-7.89,5.92,0,4.04,2.47,6.31,7.79,6.31,7.1,0,11.83-4.54,11.83-10.16Z"/>
    <path d="M304.57,76.77V6.75h13.8V76.77h-13.8Z"/>
    <path d="M325.08,50.73c0-13.71,9.27-27.02,26.33-27.02,17.95,0,26.33,13.21,26.33,26.92v4.83h-39.25c1.28,7.3,6.21,11.04,13.02,11.04,6.02,0,9.66-2.37,12.42-6.71l10.45,6.71c-4.54,7.2-12.72,11.24-22.88,11.24-11.73,0-26.43-7.49-26.43-27.02Zm38.95-6.11c-1.38-5.62-5.52-9.66-12.33-9.66-6.01,0-10.55,3.06-12.72,9.66h25.05Z"/>
  </g>
</svg>