<?xml version="1.0" encoding="utf-8"?>
<svg viewBox="-94.015 275.936 853.366 185.385" xmlns="http://www.w3.org/2000/svg">
  <defs>
    <radialGradient cx="0" cy="0" r="1" gradientUnits="userSpaceOnUse" gradientTransform="matrix(3114.38,0,0,-3114.38,5002.92,2727.92)" spreadMethod="pad" id="radialGradient484">
      <stop style="stop-opacity:1;stop-color:#000000" offset="0" id="stop478"/>
      <stop style="stop-opacity:1;stop-color:#000000" offset="0.2163" id="stop480"/>
      <stop style="stop-opacity:1;stop-color:#000000" offset="1" id="stop482"/>
    </radialGradient>
  </defs>
  <path d="m 1501.6,1850.88 c -163.32,-7.49 -305.69,-15.78 -422.94,-22.22 -65.1,-3.36 -122.418,-6.97 -171.312,-10.17 v 9.6 c 0,0.4 -0.297,0.69 -0.664,0.69 h -0.989 v 58.45 l 0.903,1.49 c 0.058,0.13 0.086,0.25 0.086,0.37 v 16.67 c 105.016,14.66 210.176,28.64 315.366,41.86 85.46,10.85 170.95,21.26 256.5,31.01 85.58,9.74 171.13,19.28 256.8,27.91 42.82,4.35 85.67,8.49 128.52,12.48 42.85,4.04 85.7,8 128.58,11.66 81.29,7.02 162.68,13.29 244.06,18.65 v -38.26 c 0,-0.27 0.06,-0.54 0.21,-0.78 l 2.04,-3.39 v -126.43 c -64.29,-2.23 -127.32,-4.42 -188.61,-6.55 -201,-7.57 -385.24,-15.32 -548.55,-23.04 z M 872.266,1817.3 h -4.2 v 11.19 c 0,0.35 -0.3,0.65 -0.66,0.65 h -1.019 v 2.76 h 18.14 v -3.12 h -0.992 c -0.355,0 -0.656,-0.29 -0.656,-0.69 v -11.06 h -4.109 c -0.262,0 -0.348,-0.25 -0.465,-0.45 -1.793,-0.11 -3.617,-0.23 -5.383,-0.35 v 0.41 c 0,0.36 -0.301,0.66 -0.656,0.66 z m -27.594,107.23 c -0.356,0 -0.656,-0.3 -0.656,-0.66 v -1.14 c -1.11,-0.18 -2.219,-0.39 -3.328,-0.57 v 124.42 c 2.16,3.8 4.23,7.64 6.328,11.48 v -54.73 l -1.469,-1.49 c -0.121,-0.12 -0.18,-0.31 -0.18,-0.46 v -76.85 z m -5.484,-2.64 c -1.743,-0.27 -3.477,-0.57 -5.219,-0.87 -2.758,-0.48 -5.547,-0.96 -8.305,-1.44 v 101.63 c 1.5,2.42 3.059,4.82 4.527,7.28 3.059,5.1 6.059,10.26 8.997,15.44 z m -15.02,101.5 c -5.102,-8.27 -10.375,-16.49 -15.867,-24.52 v 50.58 c 5.582,11.25 10.855,22.61 15.867,34.1 z m 0,-104.08 c -0.301,-0.06 -0.633,-0.09 -0.934,-0.15 v 98.15 c 0.301,0.48 0.633,0.99 0.934,1.47 z m -1.828,-0.33 c -4.68,-0.81 -9.36,-1.62 -14.039,-2.43 v 78 c 4.832,6.98 9.508,14.12 14.039,21.29 z m -14.934,78.54 c -5.547,-8.07 -11.398,-15.99 -17.394,-23.75 v 41.17 c 2.488,4.38 4.949,8.75 7.347,13.19 3.446,6.45 6.778,12.92 10.047,19.46 z m 0,-81.12 c -0.871,-0.15 -1.711,-0.3 -2.551,-0.45 v 73.77 c 0.84,1.2 1.708,2.37 2.551,3.57 z m -3.453,-0.6 c -4.644,-0.84 -9.293,-1.64 -13.941,-2.46 v 56.41 c 4.797,6.12 9.449,12.38 13.941,18.71 z m -14.84,56.8 c -1.679,-2.16 -3.3,-4.38 -5.039,-6.51 -4.019,-4.95 -8.125,-9.84 -12.355,-14.63 v 33.61 c 6.09,9.24 11.879,18.68 17.394,28.28 z m 0,-59.43 c -0.875,-0.15 -1.738,-0.3 -2.609,-0.45 v 52.47 c 0.898,1.11 1.734,2.25 2.609,3.39 z m -3.508,-0.6 c -4.621,-0.81 -9.269,-1.65 -13.886,-2.47 v 37.4 c 4.769,5.43 9.39,10.91 13.886,16.55 z m -14.785,37.9 c -5.609,-6.3 -11.394,-12.42 -17.39,-18.32 v 27.14 c 0.593,0.8 1.23,1.58 1.797,2.36 5.429,7.2 10.613,14.58 15.593,22.07 z m 0,-40.51 c -0.898,-0.18 -1.765,-0.33 -2.672,-0.48 v 34.03 c 0.907,0.99 1.774,1.98 2.672,3 z m -3.57,-0.66 c -4.613,-0.81 -9.203,-1.65 -13.82,-2.49 v 21.29 c 4.738,4.68 9.351,9.47 13.82,14.39 z m 58.414,177.78 c 1.742,4.08 3.508,8.16 5.188,12.27 4.949,12.14 9.625,24.41 13.976,36.79 1.77,5.01 3.445,10.05 5.098,15.08 v -27.82 l -0.992,-0.81 c -0.149,-0.12 -0.239,-0.3 -0.239,-0.51 v -52.42 l -1.437,-1.32 c -0.153,-0.12 -0.242,-0.3 -0.242,-0.48 v -4.58 c -6,-11.34 -12.266,-22.55 -18.891,-33.53 -0.809,-1.35 -1.652,-2.64 -2.461,-3.96 z m 38.715,11.1 c -0.481,-1.02 -0.988,-2.04 -1.473,-3.06 l -0.027,3.09 c 0,1.17 0.418,2.22 1.168,3 0.449,0.45 1.023,0.81 1.648,0.96 v -1.11 c -0.449,-0.96 -0.867,-1.92 -1.316,-2.88 z m 1.316,-51.34 v -44.71 c -0.117,0.06 -0.242,0.15 -0.355,0.24 l -0.902,0.93 c -0.032,0 -0.032,0 -0.032,0.03 v 42.82 c 0.364,0.33 0.809,0.57 1.289,0.69 z m -2.605,24.98 -0.152,16.97 v 0.12 c 0.929,1.89 1.859,3.75 2.757,5.64 v -27.08 c -1.558,0.84 -2.605,2.52 -2.605,4.35 z m -0.363,81.47 c 0.75,0.75 1.8,1.17 2.91,1.17 0.027,0 0.027,0 0.058,0 v -35.44 c -1.199,0.3 -2.246,1.02 -2.968,2.01 v 1.05 c 0,0.21 -0.09,0.39 -0.243,0.51 l -0.625,0.54 c -0.062,0.24 -0.089,0.51 -0.089,0.78 l -0.207,26.39 c -0.036,1.16 0.386,2.21 1.164,2.99 z m 3.66,-289.09 7.258,-10.29 -7.258,-11.6 z m 0,9.74 18.14,-1.05 v -1.56 l -8.578,-13.73 -9.562,13.56 z m 0,4.77 8.996,12.9 9.144,-12.87 v -1.83 l -18.14,1.05 z m 0,9.57 0.929,1.5 c 0.063,0.12 0.09,0.24 0.09,0.36 v 10.07 c 0.535,0.09 1.074,0.18 1.649,0.24 l 3.84,-5.37 -6.508,-9.35 z m 0.804,90.05 c 0.512,0.2 1.024,0.32 1.594,0.32 0.145,0 0.305,-0.02 0.477,-0.02 l 7.742,-0.82 v -49.53 c -3.274,-0.54 -6.543,-1.08 -9.813,-1.65 z m 0,68.69 c 0.125,0 0.215,0 0.332,-0.03 l 9.481,-1.35 v -45.13 l -9.031,0.81 c -0.27,0.03 -0.508,0.06 -0.782,0.16 z m 0,50.62 c 0.727,1.5 1.387,3 2.071,4.5 h 0.066 l 7.676,-0.81 v -35.18 l -9.176,0.63 c -0.211,0 -0.422,0.03 -0.637,0.09 z m 0,56.67 h 0.125 c 0.657,-0.9 1.289,-1.83 1.946,-2.72 2.519,-3.48 5.133,-6.9 7.742,-10.32 v -14.72 c -1.141,-2.7 -2.281,-5.4 -3.484,-8.1 l -6.329,0.39 z m 9.813,-36.07 h -0.391 c 0.149,0.3 0.266,0.6 0.391,0.87 z m 0.476,-216.59 -2.156,-3.09 -1.804,2.52 c 1.324,0.21 2.64,0.39 3.96,0.57 z m -0.476,251.73 v -0.06 c 0,-0.41 0.328,-0.75 0.746,-0.75 0.391,0 0.688,0.3 0.719,0.69 h 0.035 l 7.074,-0.69 c 0.629,-0.06 1.231,-0.26 1.77,-0.57 l -0.153,-0.41 c -1.59,-4.17 -3.297,-8.34 -4.976,-12.48 -3.656,4.62 -7.285,9.33 -10.766,14.09 -0.207,0.24 -0.387,0.51 -0.57,0.78 z m 12.383,-23.17 c -0.602,0.72 -1.203,1.4 -1.801,2.12 -1.078,1.35 -2.133,2.7 -3.207,4.02 1.711,4.11 3.387,8.19 5.008,12.3 z m 15.769,-130.62 -0.269,0.27 v 108.48 c 4.5,-4.82 9.117,-9.56 13.855,-14.21 v -158.9 c -4.469,-0.71 -8.906,-1.46 -13.375,-2.21 v 66.09 c 0,0.18 -0.054,0.36 -0.211,0.48 z m -3.086,67.07 v 44.71 c 0.45,-0.48 0.868,-0.95 1.321,-1.44 v -44.44 z M 882.879,1902.4 c 0.211,0.06 0.422,0.09 0.656,0.09 v -13.4 c 0,-0.12 0.035,-0.24 0.094,-0.37 l 0.898,-1.49 v -1.56 l -6.714,9.44 z m -1.379,74.97 c 1.316,-0.16 2.516,-0.84 3.355,-1.8 v -45.97 c -2.128,-0.33 -4.253,-0.69 -6.351,-1.08 v 49.14 z m 1.648,67.4 c 1.317,-0.18 2.52,-0.9 3.36,-1.91 v -41.33 c -0.84,-1.05 -2.16,-1.67 -3.656,-1.55 l -4.348,0.38 v 45.07 z m 1.079,55.78 c 1.679,-0.18 3.121,-1.2 3.929,-2.64 v -29.66 c -0.722,-1.62 -2.371,-2.66 -4.289,-2.55 l -5.363,0.37 v 35.08 z m -5.723,29.51 v 9.32 c 0.836,-1.08 1.703,-2.16 2.551,-3.21 -0.367,-0.84 -0.692,-1.71 -1.024,-2.55 -0.511,-1.2 -1.023,-2.37 -1.527,-3.56 z m 4.281,2.39 c 0.156,0.33 0.278,0.66 0.422,0.99 0.75,-0.93 1.496,-1.89 2.246,-2.85 1.297,-1.55 2.617,-3.12 3.934,-4.64 v -5.79 c -0.121,-0.21 -0.242,-0.45 -0.391,-0.63 l -0.598,-0.48 c -0.089,-0.09 -0.152,-0.21 -0.183,-0.33 -0.84,-0.69 -1.887,-1.05 -3.059,-0.99 l -6.652,0.42 v 4.41 c 1.437,3.3 2.906,6.6 4.281,9.89 z m -4.316,-278.39 6.058,9.72 v -18.35 z m 6.058,-15.56 v -2.61 h -17.394 l 9.027,14.48 z m 16.317,320.25 c 0.324,-0.51 0.683,-0.99 1.015,-1.5 2.575,-3.69 5.215,-7.38 7.887,-11 2.906,-4.02 5.938,-7.95 8.996,-11.88 v -36.25 c -5.73,5.63 -11.277,11.45 -16.672,17.45 v 2.94 c 0,0.21 -0.093,0.39 -0.269,0.54 l -0.957,0.78 z m 19.394,-66.09 c 0.364,-0.36 0.719,-0.75 1.114,-1.08 2.761,-2.7 5.601,-5.3 8.457,-7.92 v -146.6 c -3.18,-0.51 -6.391,-1.04 -9.571,-1.59 z m 25.043,-22.31 v -130.77 c -4.652,-0.75 -9.328,-1.5 -13.972,-2.28 v 144.99 c 4.554,-4.08 9.234,-8.04 13.972,-11.94 z m -25.043,62.16 c 2.043,-2.57 4.051,-5.16 6.149,-7.67 6.054,-7.35 12.355,-14.52 18.894,-21.47 v -29.33 c -7.558,6.27 -14.902,12.78 -21.98,19.55 -1.047,0.99 -2.039,2.04 -3.063,3.03 z m 26.543,-63.36 c 3.114,-2.52 6.266,-5.01 9.446,-7.4 v -120.37 c -3.149,-0.51 -6.301,-1.02 -9.446,-1.53 z m 25.035,-18.68 v -106.54 c -3.39,-0.54 -6.804,-1.11 -10.199,-1.65 -1.285,-0.21 -2.601,-0.42 -3.894,-0.63 v 118.96 c 4.621,-3.48 9.328,-6.87 14.093,-10.14 z m -25.035,51.34 c 5.391,-5.7 10.879,-11.25 16.578,-16.65 2.789,-2.6 5.61,-5.15 8.457,-7.7 v -23.45 c -8.605,5.91 -16.941,12.21 -25.035,18.83 z m 26.535,-52.36 c 3.086,-2.07 6.176,-4.11 9.325,-6.08 v -97.7 c -3.114,-0.48 -6.211,-0.99 -9.325,-1.5 z m 25.008,-15.38 v -85.91 c -4.738,-0.72 -9.445,-1.5 -14.183,-2.25 v 96.49 c 4.648,-2.87 9.39,-5.63 14.183,-8.33 z m -25.008,42.01 c 8.036,-7.08 16.403,-13.82 25.008,-20.21 v -18.44 c -8.543,4.82 -16.883,10.02 -25.008,15.53 z m 26.508,-42.82 c 2.366,-1.32 4.706,-2.67 7.106,-3.9 0.69,-0.39 1.41,-0.72 2.1,-1.08 v -78.41 c -3.06,-0.48 -6.15,-0.96 -9.206,-1.47 z m 25.036,-12.62 v -68.25 c -4.77,-0.75 -9.56,-1.5 -14.33,-2.28 v 77.42 c 4.74,-2.4 9.5,-4.7 14.33,-6.89 z m -25.036,34.12 c 8.126,-5.97 16.466,-11.64 25.036,-16.94 v -13.92 c -5.57,2.55 -11.12,5.22 -16.55,8.07 -2.85,1.5 -5.67,3.06 -8.486,4.65 z m 26.536,-34.82 c 3,-1.34 6.03,-2.66 9.09,-3.92 v -61.98 c -3.03,-0.48 -6.06,-0.93 -9.09,-1.45 z m 25.04,-10.13 v -53.28 c -4.83,-0.75 -9.62,-1.5 -14.45,-2.25 v 61.11 c 4.76,-1.98 9.59,-3.84 14.45,-5.58 z m -25.04,27.05 c 8.16,-4.98 16.49,-9.69 25.04,-14 v -9.84 c -8.48,3.09 -16.82,6.48 -25.04,10.19 z m 26.54,-27.62 c 2.97,-1.05 5.97,-2.07 8.96,-3.03 v -48.07 c -2.99,-0.45 -5.97,-0.93 -8.96,-1.37 z m 25.01,-7.92 v -40.69 c -4.86,-0.74 -9.69,-1.49 -14.55,-2.24 v 47.31 c 4.83,-1.56 9.66,-3.03 14.55,-4.38 z m -25.01,20.79 c 8.18,-4.11 16.52,-7.89 25.01,-11.4 v -6.21 c -8.43,2.37 -16.76,5.01 -25.01,7.98 z m 26.51,-21.21 c 2.93,-0.8 5.91,-1.55 8.87,-2.27 v -36.41 c -2.94,-0.45 -5.91,-0.9 -8.87,-1.38 z m 25.04,-5.9 v -30.32 c -4.89,-0.75 -9.78,-1.5 -14.67,-2.22 v 35.81 c 4.86,-1.2 9.75,-2.28 14.67,-3.27 z m -25.04,15.14 c 8.24,-3.36 16.58,-6.39 25.04,-9.11 v -2.88 c -8.4,1.71 -16.77,3.65 -25.04,5.94 z m 26.54,-15.47 c 0.3,-0.06 0.6,-0.12 0.89,-0.18 2.61,-0.51 5.22,-0.93 7.83,-1.41 v -26.84 c -2.91,-0.45 -5.82,-0.9 -8.72,-1.32 z m 25.01,-4.08 v -21.89 c -4.92,-0.75 -9.88,-1.5 -14.79,-2.25 v 26.39 c 4.91,-0.84 9.84,-1.59 14.79,-2.25 z m -25.01,9.95 c 7.28,-2.34 14.6,-4.49 22,-6.38 -6.87,0.96 -13.7,2.04 -20.5,3.36 -0.52,0.09 -0.99,0.21 -1.5,0.33 z m 26.5,-10.16 c 2.88,-0.39 5.76,-0.66 8.64,-0.99 v -19.19 c -2.88,-0.42 -5.76,-0.84 -8.64,-1.29 z m 10.14,-1.14 c 4.68,-0.48 9.38,-0.9 14.09,-1.23 0.27,-0.06 0.54,-0.09 0.81,-0.15 v -15.2 c -4.98,-0.72 -9.93,-1.47 -14.9,-2.22 z m 16.4,-1.62 c 2.85,-0.48 5.67,-0.99 8.52,-1.44 v -12.02 c -2.82,-0.42 -5.67,-0.84 -8.52,-1.26 z m 10.01,-1.65 c 5.01,-0.72 10.02,-1.35 15.03,-1.92 v -7.43 c -5.01,-0.72 -10.02,-1.47 -15.03,-2.25 z m 16.53,-2.07 c 4.02,-0.45 8.06,-0.84 12.08,-1.17 v -4.1 c -4.02,-0.58 -8.03,-1.18 -12.08,-1.81 z m 12.08,3.09 v -1.08 c -3.48,0.27 -6.99,0.63 -10.47,0.99 3.51,-0.03 6.99,0 10.47,0.09 z m 2.25,-4.41 c 4.8,-0.36 9.6,-0.66 14.42,-0.87 v -0.63 c -4.79,-0.69 -9.62,-1.41 -14.42,-2.13 z m 17.6,-1.02 c -0.03,0 -0.09,0 -0.12,-0.03 -0.27,-0.03 -0.54,-0.06 -0.81,-0.12 v 0.18 c 0.3,0 0.6,-0.03 0.93,-0.03 z m -17.6,5.46 c 4.23,0.09 8.43,0.24 12.63,0.45 7.22,0.36 14.39,0.9 21.55,1.56 v -4.65 c -11.39,0.03 -22.78,0.51 -34.18,1.35 z m 36.43,2.19 c 11.46,1.08 22.86,2.52 34.22,4.26 v -4.35 c -11.07,-1.56 -22.13,-3.12 -33.17,-4.74 h -1.05 z m 36.47,4.62 c 11.45,1.8 22.85,3.9 34.18,6.33 v -5.94 c -11.39,-1.56 -22.79,-3.15 -34.18,-4.8 z m 36.43,6.8 c 11.48,2.49 22.88,5.25 34.18,8.28 v -9.62 c -11.39,-1.56 -22.79,-3.15 -34.18,-4.77 z m 36.44,8.91 c 11.48,3.09 22.9,6.48 34.21,10.08 v -15.42 c -11.43,-1.5 -22.82,-3.05 -34.21,-4.61 z m 36.46,10.8 c 11.48,3.68 22.87,7.58 34.18,11.69 v -19.97 c -7.02,-2.01 -14.09,-3.96 -21.17,-5.79 -4.35,-0.57 -8.66,-1.14 -13.01,-1.77 z m 51.78,-6.69 v -2.22 c -4.44,-0.57 -8.87,-1.14 -13.31,-1.77 4.44,1.32 8.9,2.64 13.31,3.99 z m 18.86,5.97 v -5.7 c -5.54,-0.69 -11.09,-1.44 -16.61,-2.19 v 2.61 c 5.55,1.68 11.09,3.47 16.61,5.28 z m -34.21,13.22 c 0.09,0.03 0.18,0.06 0.27,0.09 11.39,4.2 22.7,8.67 33.94,13.25 v -22.91 c -11.33,-3.72 -22.73,-7.25 -34.21,-10.58 z m 36.46,-12.5 c 5.19,1.74 10.35,3.47 15.51,5.27 v -9.35 c -5.16,-0.66 -10.35,-1.35 -15.51,-2.04 z m 34.19,12.02 v -13.68 c -5.1,-0.65 -10.17,-1.31 -15.27,-1.97 -0.39,-0.06 -0.78,-0.09 -1.17,-0.15 v 9.8 c 0.36,0.12 0.72,0.24 1.05,0.36 5.16,1.83 10.29,3.75 15.39,5.64 z m -34.19,14.75 c 11.46,4.71 22.88,9.57 34.19,14.64 v -25.61 c -5.49,-2.04 -11.01,-4.11 -16.56,-6.09 -5.84,-2.07 -11.75,-4.05 -17.63,-6.03 z m 36.43,-13.91 c 5.25,1.95 10.47,3.93 15.69,5.94 v -18.15 c -5.22,-0.69 -10.44,-1.34 -15.69,-2.03 z m 34.19,13.25 v -23.15 c -5.4,-0.66 -10.82,-1.34 -16.25,-2.03 v 18.76 c 5.43,2.13 10.85,4.23 16.25,6.42 z m -34.19,16.28 c 11.49,5.19 22.89,10.59 34.19,16.11 v -28.49 c -11.3,-4.64 -22.7,-9.08 -34.19,-13.37 z m 36.44,-15.32 c 5.3,2.16 10.58,4.38 15.86,6.63 v -28.49 c -5.28,-0.63 -10.56,-1.29 -15.86,-1.97 z m 34.21,14.67 v -34.28 c -5.37,-0.63 -10.73,-1.29 -16.1,-1.98 V 2055 c 5.4,2.31 10.76,4.67 16.1,7.08 z m -34.21,17.87 c 11.48,5.61 22.91,11.33 34.21,17.27 v -31.15 c -11.33,-5.07 -22.73,-10.02 -34.21,-14.76 z m 36.46,-16.88 c 5.37,2.4 10.68,4.79 16.01,7.25 v -40.27 c -5.33,-0.63 -10.67,-1.29 -16.01,-1.95 z m 34.22,15.77 v -46.6 c -5.31,-0.63 -10.65,-1.26 -15.96,-1.92 v 41.05 c 5.31,2.46 10.65,4.92 15.96,7.47 z m -34.22,19.55 c 11.49,6.06 22.88,12.26 34.22,18.59 v -34.03 c -11.34,-5.46 -22.73,-10.74 -34.22,-15.89 z m 36.46,-18.47 c 5.4,2.61 10.77,5.24 16.13,7.91 v -53.4 c -5.39,-0.63 -10.76,-1.26 -16.13,-1.89 z m 34.16,17.03 v -60.36 c -5.28,-0.63 -10.53,-1.26 -15.77,-1.89 v 54.24 c 5.27,2.64 10.52,5.31 15.77,8.01 z m -34.16,21.29 c 3.09,1.71 6.21,3.42 9.27,5.16 8.37,4.77 16.64,9.59 24.89,14.45 v -36.7 c -11.31,-5.82 -22.7,-11.55 -34.16,-17.09 z m 36.41,-20.15 c 5.46,2.82 10.91,5.64 16.34,8.49 v -67.83 c -5.46,-0.63 -10.91,-1.26 -16.34,-1.92 z m 34.21,18.02 v -75.29 c -5.22,-0.6 -10.44,-1.2 -15.62,-1.8 v 68.75 c 5.07,2.7 10.16,5.37 15.2,8.1 0.15,0.09 0.3,0.15 0.42,0.24 z m -34.21,23.09 c 11.48,6.81 22.9,13.76 34.21,20.81 v -39.55 c -0.75,-0.42 -1.47,-0.84 -2.22,-1.26 -10.61,-5.73 -21.25,-11.37 -31.99,-16.88 z m 36.46,-21.86 c 5.52,3 11.01,6.06 16.49,9.12 v -83.49 c -5.48,-0.62 -11,-1.25 -16.49,-1.88 z m 30.38,16.94 v -89.71 c -3.87,-0.43 -7.77,-0.87 -11.64,-1.35 v 84.47 c 3.87,2.18 7.77,4.4 11.64,6.59 z m -30.38,27.11 c 10.2,6.36 20.3,12.78 30.38,19.31 v -41.98 c -10.08,-5.76 -20.18,-11.45 -30.38,-17.03 z m 33.37,-25.4 c 5.31,3.03 10.59,6.09 15.87,9.15 v -98.45 c -5.28,-0.57 -10.59,-1.17 -15.87,-1.8 z m 36.98,21.62 v -108.55 c -4.35,-0.48 -8.67,-0.96 -13.01,-1.44 -1.72,-0.17 -3.4,-0.39 -5.1,-0.57 v 99.86 c 6.05,3.54 12.08,7.1 18.11,10.7 z m -36.98,25.04 c 12.42,8.1 24.74,16.28 36.98,24.59 v -45.04 c -12.24,-7.38 -24.59,-14.63 -36.98,-21.77 z m 39.98,-23.21 c 5.36,3.24 10.7,6.48 16.04,9.75 v -118 c -5.37,-0.6 -10.71,-1.2 -16.04,-1.8 z m 36.97,22.76 v -128.73 c -6,-0.66 -11.96,-1.32 -17.93,-1.98 v 119.53 c 5.99,3.68 11.96,7.43 17.93,11.18 z m -36.97,27.11 c 12.41,8.48 24.73,17.06 36.97,25.76 v -48.19 c -12.24,-7.74 -24.59,-15.35 -36.97,-22.85 z m 39.97,-25.22 c 5.42,3.42 10.82,6.9 16.22,10.37 v -138.92 c -5.43,-0.57 -10.82,-1.17 -16.22,-1.74 z m 37,23.9 v -150.23 c -5.93,-0.63 -11.85,-1.26 -17.78,-1.89 v 140.51 c 5.93,3.84 11.87,7.71 17.78,11.61 z m -37,29.2 c 0.36,0.24 0.72,0.48 1.05,0.75 12.08,8.61 24.05,17.34 35.95,26.15 v -51.27 c -12.27,-8.13 -24.59,-16.14 -37,-24.02 z m 40,-27.25 c 5.49,3.63 10.91,7.25 16.37,10.91 V 2059.8 c -5.46,-0.57 -10.91,-1.14 -16.37,-1.71 z m 36.97,24.88 v -172.89 c -1.41,-0.12 -2.82,-0.27 -4.22,-0.42 -4.48,-0.45 -8.91,-0.93 -13.38,-1.41 v 162.76 c 3.06,2.07 6.12,4.08 9.15,6.15 2.81,1.92 5.63,3.9 8.45,5.81 z m -36.97,31.49 c 12.41,9.21 24.74,18.53 36.97,27.95 v -54.46 c -3.57,-2.49 -7.13,-4.98 -10.73,-7.4 -8.73,-5.94 -17.46,-11.79 -26.24,-17.61 z m 39.97,-29.42 c 5.52,3.78 11.03,7.62 16.55,11.46 V 2063.9 c -5.52,-0.53 -11.03,-1.11 -16.55,-1.67 z m 36.97,25.82 v -196.8 c -5.82,-0.56 -11.6,-1.14 -17.42,-1.71 v 186.25 c 5.82,4.08 11.64,8.16 17.42,12.26 z m -36.97,33.86 c 12.41,9.53 24.74,19.19 36.97,28.93 v -57.66 c -12.26,-8.76 -24.58,-17.42 -36.97,-26 z m 39.97,-31.7 c 5.61,3.99 11.19,7.98 16.77,12.03 v -209.07 c -5.61,-0.54 -11.19,-1.08 -16.77,-1.61 z m 37,26.78 v -221.87 c -5.75,-0.57 -11.51,-1.11 -17.24,-1.65 v 210.96 c 5.76,4.16 11.52,8.36 17.24,12.56 z m -37,36.25 c 12.41,9.9 24.74,19.88 37,29.99 v -60.96 c -12.26,-9.09 -24.59,-18.05 -37,-26.93 z m 40,-34 c 5.64,4.17 11.28,8.36 16.91,12.56 v -234.82 c -5.63,-0.54 -11.27,-1.05 -16.91,-1.59 z m 36.98,27.74 v -248.17 c -5.7,-0.51 -11.4,-1.02 -17.07,-1.56 v 236.8 c 5.7,4.29 11.4,8.61 17.07,12.93 z m -36.98,38.71 c 2.85,2.34 5.7,4.68 8.55,7.04 9.54,7.89 18.98,15.93 28.43,23.93 V 2327 c -12.27,-9.38 -24.59,-18.65 -36.98,-27.86 z m 39.98,-36.44 c 5.72,4.35 11.39,8.76 17.09,13.14 V 2075.3 c -5.13,-0.45 -10.23,-0.9 -15.36,-1.38 -0.57,-0.06 -1.17,-0.12 -1.73,-0.15 z m 36.97,28.64 V 2077.1 c -5.61,-0.48 -11.25,-0.99 -16.88,-1.53 v 263.79 c 5.63,4.38 11.27,8.78 16.88,13.19 z m -36.97,41.29 c 12.41,10.53 24.7,21.14 36.97,31.85 v -67.59 c -12.27,-9.69 -24.59,-19.28 -36.97,-28.79 z m 39.97,-38.95 c 0.99,0.81 2.01,1.59 2.99,2.37 4.8,3.75 9.51,7.62 14.28,11.42 V 2078.9 l -17.27,-1.53 z m 37,29.57 v -303.85 c -5.58,-0.48 -11.15,-0.96 -16.74,-1.47 v 291.94 c 5.59,4.44 11.19,8.88 16.74,13.38 z m -37,43.84 c 12.41,10.85 24.74,21.8 37,32.83 v -70.83 c -12.17,-9.95 -24.41,-19.85 -36.73,-29.62 -0.1,-0.06 -0.18,-0.16 -0.27,-0.21 z m 40,-41.45 c 5.82,4.71 11.63,9.48 17.42,14.25 v -318.75 c -5.82,-0.51 -11.6,-0.99 -17.42,-1.5 z m 36.97,30.38 v -333.26 c -5.52,-0.45 -11.03,-0.93 -16.55,-1.38 v 320.97 c 5.52,4.55 11.06,9.08 16.55,13.67 z m -36.97,46.6 c 12.41,11.19 24.71,22.46 36.97,33.79 v -74.24 c -12.26,-10.29 -24.59,-20.54 -36.97,-30.68 z m 39.97,-44.14 c 5.88,4.92 11.75,9.84 17.6,14.78 v -348.83 c -5.85,-0.48 -11.72,-0.95 -17.6,-1.43 z m 36.97,31.25 V 2087.2 c -5.46,-0.45 -10.91,-0.87 -16.37,-1.32 v 351.14 c 5.46,4.62 10.91,9.27 16.37,13.92 z m -36.97,49.44 c 2.49,2.31 5.01,4.56 7.47,6.87 9.89,9.24 19.69,18.56 29.5,27.89 v -77.73 c -12.26,-10.58 -24.59,-21.11 -36.97,-31.54 z m 39.97,-46.9 c 5.94,5.07 11.88,10.2 17.78,15.33 v -379.99 c -5.93,-0.48 -11.84,-0.93 -17.78,-1.37 z m 37,32.12 v -395.31 c -5.39,-0.42 -10.82,-0.84 -16.22,-1.26 v 382.39 c 5.43,4.73 10.83,9.44 16.22,14.18 z m -37,52.39 c 12.41,11.87 24.74,23.8 37,35.86 v -81.41 c -12.26,-10.89 -24.59,-21.71 -37,-32.45 z m 40,-49.75 c 3,2.64 6.06,5.25 9.06,7.89 2.97,2.66 5.94,5.3 8.9,7.97 v -412.28 c -5.97,-0.42 -11.96,-0.87 -17.96,-1.32 z m 36.98,32.92 V 2093.2 c -5.34,-0.36 -10.68,-0.75 -16.02,-1.17 v 414.74 c 5.34,4.8 10.68,9.59 16.02,14.39 z m -36.98,55.63 c 12.41,12.23 24.74,24.59 36.98,37.06 v -85.46 c -10.41,-9.51 -20.88,-18.98 -31.37,-28.37 -1.86,-1.68 -3.75,-3.3 -5.61,-4.94 z m 39.97,-52.9 c 6.06,5.49 12.12,10.98 18.14,16.49 v -128.33 l -1.13,-1.06 c -0.33,-0.27 -0.51,-0.69 -0.51,-1.11 v -144.8 l -3.3,-3.33 c -0.3,-0.27 -0.45,-0.66 -0.45,-1.05 v -166.39 c -4.26,-0.27 -8.49,-0.57 -12.75,-0.9 z m 0,92.99 c 7.71,7.88 15.39,15.83 23,23.84 v -88.43 c -7.64,-7.11 -15.29,-14.15 -23,-21.17 z m 48.97,30.41 c 1.08,-0.64 2.13,-1.23 3.21,-1.83 l -3.21,0.56 z m 10.32,-43.09 16.67,-1.62 c -8.85,-8.61 -17.75,-17.16 -26.72,-25.67 v 0.03 l -0.15,17.93 c -0.03,2.61 0.9,4.98 2.64,6.72 1.71,1.7 4.02,2.66 6.54,2.66 0.33,0 0.66,-0.03 1.02,-0.05 z m 18.92,-80.91 -17.96,1.11 c -3.48,0.21 -6.57,2.13 -8.52,4.83 v 2.34 c 0,0.45 -0.21,0.9 -0.54,1.17 l -1.44,1.17 c -0.09,0.57 -0.18,1.14 -0.18,1.74 l -0.27,33.61 c 9.69,9.09 19.31,18.26 28.91,27.5 z m 19.04,-468.47 -15.59,-22.43 -1.65,-2.37 -1.8,2.52 -14.46,20.24 c 4.83,0.3 9.63,0.6 14.46,0.9 1.14,0.06 2.31,0.15 3.45,0.21 5.18,0.33 10.4,0.63 15.59,0.93 z m -15.59,153.26 12.17,-1.26 c 2.19,-0.21 4.2,-1.08 5.88,-2.4 v -104.44 c -6.03,-0.33 -12.06,-0.72 -18.05,-1.08 z m 0,152.3 15.92,-2.25 c 0.72,-0.12 1.43,-0.3 2.13,-0.54 v -99.82 c -0.9,-0.22 -1.83,-0.27 -2.82,-0.19 l -15.23,1.39 z m 0,124.83 18.05,-1.92 v -78.26 c -0.18,0 -0.36,0.03 -0.51,0.03 l -17.54,1.19 z m 0,114.85 c 0.63,0.59 1.22,1.2 1.85,1.8 l 16.2,-1.57 v -78.32 l -18.05,1.11 z m 19.01,-599.01 -15.11,21.21 12.89,18.52 v -32.05 c 0,-0.27 0.06,-0.54 0.21,-0.78 l 2.01,-3.36 z m 2.49,354.62 c 0.71,-0.54 1.37,-1.17 1.94,-1.86 v -92.78 c -0.57,-0.69 -1.2,-1.29 -1.94,-1.76 z m 0,126.72 c 2.37,-0.99 4.38,-2.79 5.66,-5.04 v -66.57 c -1.08,-2.42 -3.12,-4.31 -5.66,-5.18 z m 0,117.55 c 3.47,-0.4 6.53,-2.49 8.39,-5.31 v -67.35 c -0.27,-0.51 -0.54,-1.02 -0.87,-1.44 l -1.32,-1.08 c -0.2,-0.21 -0.36,-0.45 -0.45,-0.75 -1.62,-1.29 -3.56,-2.13 -5.75,-2.22 z m -39.98,-192.43 c -5.84,0.4 -10.61,5.46 -10.67,11.31 l -0.45,59.22 c 0,2.58 0.93,4.95 2.61,6.66 1.68,1.71 3.99,2.64 6.47,2.64 0.36,0 0.72,-0.03 1.11,-0.06 l 15.96,-1.71 v -79.08 z m 0.33,-146.9 c -2.18,0.18 -4.19,1.05 -5.9,2.34 l -2.07,2.07 c -0.03,0.03 -0.03,0.03 -0.06,0.06 v 96.11 c 1.53,1.29 3.48,2.01 5.58,2.01 0.47,0 0.96,-0.03 1.43,-0.09 l 15.72,-2.22 v -101.6 z m -4.28,-163.15 v 109.93 c 1.64,1.47 3.78,2.31 6.09,2.31 0.35,0 0.71,-0.03 1.07,-0.06 l 11.82,-1.2 v -109.78 c -6.33,-0.36 -12.65,-0.78 -18.98,-1.2 z m 0.74,-96.23 v 5.67 l 2.05,3.39 c 0.15,0.24 0.2,0.51 0.2,0.78 v 28.4 l 12.33,-17.28 z m 21.69,-18.74 -3.45,0.21 -18.24,1.05 v 1.74 l 18.24,26.18 1.89,2.73 1.56,-2.19 19.01,-26.66 v -4.14 z m 0,-43.99 -0.24,-0.39 -3.21,4.56 -18.24,25.85 v 6.24 l 18.24,-1.05 3.45,-0.21 19.01,-1.08 v -3.48 z m 5.39,-8.36 13.62,21.8 v -41.14 z m -27.08,-26.36 v 49.12 l 16.29,-23.06 z m 18.24,12.24 3.45,5.51 0.21,0.33 18.8,-26.66 v -5.81 h -39.07 z m -57.07,617.02 v 10.1 c 0.63,0.57 1.23,1.14 1.86,1.71 v -10.34 z m 116.14,67.13 c 3.66,-1.85 7.35,-3.71 11.03,-5.54 v -491.86 c -0.29,-0.03 -0.6,-0.03 -0.89,-0.06 v 152.93 c 0,0.42 -0.15,0.78 -0.46,1.08 l -3.26,3.27 v 143.21 c 0,0.45 -0.18,0.84 -0.48,1.14 l -3.21,2.88 v 116.37 c 0,0.42 -0.21,0.87 -0.57,1.17 l -2.16,1.77 z m 0,35.72 c 3.66,-2.07 7.35,-4.14 11.03,-6.18 v -27.13 c -3.68,1.79 -7.37,3.59 -11.03,5.42 z m 12.98,-578.04 c 29.7,1.62 59.38,3.04 89.06,4.36 l -0.89,-50.25 -71.39,-107.09 v -19.17 c -6.28,-0.18 -12.62,-0.37 -18.88,-0.56 v 119.45 l 1.86,3.12 z m 1.5,535.07 c 5.4,-2.7 10.83,-5.37 16.26,-8.04 2.33,-1.14 4.67,-2.22 7.01,-3.36 v -477.37 c -7.76,-0.4 -15.5,-0.78 -23.27,-1.2 z m 45.16,-21.86 v -465.83 c -6.15,-0.27 -12.29,-0.61 -18.44,-0.9 v 475.55 c 6.15,-2.97 12.29,-5.91 18.44,-8.82 z m -45.16,56.73 c 14.93,-8.3 30.02,-16.4 45.16,-24.31 v -24.02 c -8.58,3.95 -17.18,7.94 -25.73,12.02 -6.47,3.12 -12.98,6.24 -19.43,9.41 z m 48.64,-58.38 c 7.65,-3.6 15.33,-7.11 23,-10.61 v -452.31 c -7.67,-0.37 -15.33,-0.72 -23,-1.09 z m 0,32.26 c 14.96,-7.79 30.02,-15.41 45.13,-22.91 v -21.16 c -15.11,6.59 -30.17,13.34 -45.13,20.24 z m 49.93,-54.94 -0.54,-47.48 h -0.78 v 48.06 c 0.44,-0.2 0.88,-0.39 1.32,-0.58 z m -1.32,30.33 c 0.55,-0.27 1.11,-0.55 1.66,-0.82 l -0.24,-20.71 c -0.47,0.2 -0.95,0.39 -1.42,0.6 z m 21.87,84.02 c 0,0 0.49,5.62 3.86,5.62 3.41,0 3.86,-5.62 3.86,-5.62 v -17.98 h -7.72 z m 5.81,61.4 c 0,0 1.1,11.74 8.79,11.74 7.7,0 8.8,-11.74 8.8,-11.74 v -37.52 h -17.59 z m 23.4,-61.4 v -17.98 h -7.76 v 17.98 c 0,0 0.49,5.62 3.86,5.62 3.41,0 3.9,-5.62 3.9,-5.62 z m 48.67,-48.8 c 17.04,0 19.47,-23.53 19.47,-23.53 v -57.27 c -13.03,5.42 -26.01,10.94 -38.94,16.6 v 40.67 c 0,0 2.43,23.53 19.47,23.53 z m -17.59,48.8 c 0,0 0.58,5.62 4.68,5.62 4.05,0 4.64,-5.62 4.64,-5.62 v -17.98 h -9.32 z m 22.23,0 v -17.98 h -9.31 v 17.98 c 0,0 0.58,5.62 4.67,5.62 4.06,0 4.64,-5.62 4.64,-5.62 z m -16.23,61.4 c 0,0 1.47,11.74 11.59,11.74 10.09,0 11.55,-11.74 11.55,-11.74 v -37.52 h -23.14 z m 29.15,-61.4 v -17.98 h -9.32 v 17.98 c 0,0 0.59,5.62 4.68,5.62 4.09,0 4.64,-5.62 4.64,-5.62 z m 31.11,0 c 0,0 0.49,5.62 3.87,5.62 3.4,0 3.86,-5.62 3.86,-5.62 v -17.98 h -7.73 z m 5.81,61.4 c 0,0 1.11,11.74 8.8,11.74 7.69,0 8.79,-11.74 8.79,-11.74 v -37.52 H 2630 Z m 23.4,-61.4 v -17.98 h -7.75 v 17.98 c 0,0 0.48,5.62 3.86,5.62 3.4,0 3.89,-5.62 3.89,-5.62 z m -18.5,-17.98 v 17.98 c 0,0 0.49,5.62 3.9,5.62 3.37,0 3.86,-5.62 3.86,-5.62 v -17.98 z m -9.08,-124.2 v 69.85 c 0,0 1.62,23.53 12.98,23.53 11.35,0 12.98,-23.53 12.98,-23.53 v -75.06 h -12.51 c -4.48,1.75 -8.98,3.44 -13.45,5.21 z m 89.54,-48.56 c -12.3,3.33 -24.56,6.86 -36.77,10.52 -0.36,0.11 -0.72,0.23 -1.08,0.34 l -0.15,8.37 c 12.63,-4.7 25.28,-9.34 38,-13.78 z m 3.44,-11.64 c 7.26,-1.98 14.52,-3.93 21.77,-5.79 V 2114.1 l -7.91,-0.03 -13.86,-0.12 z m 0,15.92 c 10.94,-3.76 21.95,-7.29 32.96,-10.82 v -2.54 c -11.01,2.62 -22.02,5.23 -32.96,8.18 z m 32.96,-360.46 h -2.88 l -4.86,-0.03 v 337.91 c 2.58,-0.65 5.16,-1.24 7.74,-1.87 z m -56.11,-0.42 v 351.56 c 6.54,-1.95 13.14,-3.81 19.71,-5.64 v -345.74 l -15.18,-0.12 c -1.5,-0.03 -3.03,-0.03 -4.53,-0.06 z m -9.8,-101.78 -1.01,56.76 c 5.29,0.07 10.57,0.19 15.85,0.25 l 32.21,0.3 16.1,0.06 2.76,0.01 v -115.59 l -26.92,-0.28 z m -8.16,458.76 c 4.83,-1.49 9.67,-2.95 14.49,-4.4 v -352.61 c -2.71,-0.03 -5.43,-0.07 -8.14,-0.11 z m -152.47,64.7 c -0.28,0.11 -0.56,0.23 -0.85,0.35 v 18.05 c 0.29,-0.13 0.57,-0.26 0.85,-0.39 z m 44.28,-17.41 c -4.49,1.7 -8.96,3.48 -13.45,5.21 v 16.31 c 4.49,-2.01 8.95,-4.1 13.45,-6.07 z m -48.61,-4.32 h -18.88 v 22.17 c 6.29,-2.7 12.59,-5.31 18.88,-7.92 z m 4.33,0 h -0.85 v 12.81 c 0.29,-0.12 0.57,-0.24 0.85,-0.35 z m 47.76,3 v 15.24 c 7.31,-3.2 14.68,-6.23 22.01,-9.36 v -8.88 h -13.67 c -2.78,1.03 -5.57,1.97 -8.34,3 z m -64.63,126.41 v 17.98 c 0,0 0.49,5.62 3.89,5.62 3.38,0 3.87,-5.62 3.87,-5.62 v -17.98 z m 3.89,-30.82 c 11.36,0 12.98,-23.53 12.98,-23.53 v -26.85 c -8.68,3.95 -17.32,8 -25.96,12.06 v 14.79 c 0,0 1.62,23.53 12.98,23.53 z m -12.98,-46.55 c 7.21,-3.45 14.41,-6.94 21.63,-10.32 v -18.27 c -7.24,2.96 -14.41,6.08 -21.63,9.1 z m -26.97,-153.16 -5.41,-305.36 c -4.42,-0.19 -8.84,-0.38 -13.24,-0.57 v 450.57 c 6.2,-2.82 12.41,-5.61 18.65,-8.4 z m 2287.57,-167.65 c 0,0 3.06,10.18 17.32,13.76 14.27,-3.58 17.32,-13.76 17.32,-13.76 V 2143 h -34.64 z m 27.26,62.42 v -33.25 h -19.87 v 33.25 c 0,0 1.14,9.94 9.93,12.61 8.79,-2.67 9.94,-12.61 9.94,-12.61 z m -23.69,159.75 c 0,0 1.37,10.6 13.75,19.94 12.39,-9.34 13.76,-19.94 13.76,-19.94 v -136.05 h -27.51 z m 56.05,-222.17 c 0,0 3.06,10.18 17.32,13.76 14.27,-3.58 17.33,-13.76 17.33,-13.76 V 2143 h -34.65 z m 27.26,62.42 v -33.25 h -19.87 v 33.25 c 0,0 1.14,9.94 9.93,12.61 8.79,-2.67 9.94,-12.61 9.94,-12.61 z m -23.69,159.75 c 0,0 1.37,10.6 13.75,19.94 12.39,-9.34 13.76,-19.94 13.76,-19.94 v -136.05 h -27.51 z m 139.52,-87.28 -11.66,-14.61 h -60.22 v 12.46 l -0.82,1.15 0.09,1 z m -69.62,32.34 h 95.42 l -11.66,-14.61 h -85.11 z m 2.98,32.38 h 213.97 l 1.35,-14.65 h -107.9 l -0.42,0.52 -0.41,-0.52 h -107.94 z m 2.97,32.37 h 208.02 l 1.35,-14.64 h -210.71 z m 2.98,32.35 h 202.07 l 1.34,-14.61 h -204.76 z m 2.98,32.34 h 196.1 l 1.35,-14.61 h -198.8 z m 2.98,32.37 h 190.14 l 1.35,-14.64 h -192.84 z m 2.97,32.38 h 184.2 l 1.34,-14.64 h -186.88 z m 2.99,32.34 h 178.23 l 1.35,-14.61 h -180.93 z m 2.98,32.34 h 172.27 l 1.34,-14.61 h -174.96 z m 2.98,32.38 h 166.31 l 1.35,-14.65 h -169.01 z m 2.97,32.38 h 160.36 l 1.35,-14.65 h -163.05 z m 2.98,32.34 h 154.4 l 1.35,-14.61 h -157.1 z m 2.98,32.34 h 148.44 l 1.35,-14.61 h -151.14 z m 2.98,32.37 h 142.48 l 1.35,-14.64 h -145.18 z m 2.98,32.38 h 136.53 l 1.34,-14.65 H 4933.3 Z m 2.98,32.34 h 130.57 l 1.35,-14.61 h -133.27 z m 2.97,32.34 h 124.62 l 1.35,-14.61 h -127.31 z m 2.99,32.38 h 118.65 l 1.35,-14.65 h -121.35 z m 3.01,32.37 h 112.63 l 1.35,-14.64 h -115.33 z m 2.98,32.35 h 106.67 l 1.35,-14.62 h -109.37 z m 2.98,32.34 h 100.71 l 1.35,-14.61 h -103.41 z m 2.98,32.37 h 94.75 l 1.35,-14.64 h -97.45 z m 2.97,32.38 h 88.8 l 1.35,-14.65 h -91.49 z m 2.98,32.34 h 82.84 l 1.35,-14.61 h -85.53 z m 2.98,32.34 h 76.88 l 1.35,-14.61 h -79.58 z m 2.98,32.38 h 70.93 l 1.34,-14.65 h -73.62 z m 146.78,-823.6 h -85.08 l -11.66,14.61 h 95.39 z m -108.76,8.14 v -8.14 h -5.09 v 8.14 z m -5.09,-25.87 h 5.09 v -6.74 h -5.09 z m 115.57,-1.03 -0.79,-1.12 v -12.46 h -60.21 l -11.65,14.61 h 72.56 z m 35.77,-133.86 c 0,0 3.06,10.18 17.32,13.76 14.28,-3.58 17.34,-13.76 17.34,-13.76 V 2143 h -34.66 z m 27.26,62.42 v -33.25 h -19.87 v 33.25 c 0,0 1.14,9.94 9.93,12.61 8.8,-2.67 9.94,-12.61 9.94,-12.61 z m -23.69,159.75 c 0,0 1.37,10.58 13.75,19.94 12.39,-9.34 13.76,-19.94 13.76,-19.94 v -136.05 h -27.51 z m 56.06,-222.17 c 0,0 3.05,10.18 17.32,13.76 14.27,-3.58 17.33,-13.76 17.33,-13.76 V 2143 h -34.65 z m 27.25,62.42 v -33.25 h -19.87 v 33.25 c 0,0 1.15,9.94 9.94,12.61 8.79,-2.67 9.93,-12.61 9.93,-12.61 z m -23.69,159.75 c 0,0 1.37,10.58 13.76,19.94 12.38,-9.34 13.75,-19.94 13.75,-19.94 v -136.05 h -27.51 z m -209.95,-425.51 h -4.08 v 4.09 h 4.08 z m -3.83,79.36 c -1.38,-0.46 -2.9,-0.65 -4.47,-0.49 -0.56,0.06 -1.02,0.35 -1.56,0.49 z m -30.89,32.34 c 0.35,-1.12 0.55,-2.32 0.45,-3.67 -0.2,-2.5 -1.15,-4.79 -2.69,-6.47 -1.7,-1.85 -4.02,-2.77 -6.54,-2.54 -2.66,0.24 -5.29,1.82 -7.03,4.24 -1.76,2.39 -2.45,5.38 -1.85,7.99 0.03,0.17 0.17,0.29 0.21,0.45 z m -9.56,32.38 c -0.52,-0.72 -1.17,-1.4 -1.96,-2.02 -1.95,-1.5 -4.28,-2.33 -6.52,-2.33 v -0.61 l -0.08,0.61 c -2.53,0.03 -4.8,1.18 -6.27,3.16 -0.26,0.34 -0.31,0.81 -0.51,1.19 z m 5.91,32.37 c 0.48,-0.33 1,-0.57 1.41,-1.02 1.54,-1.68 2.49,-3.98 2.69,-6.47 0.17,-2.34 -0.34,-4.34 -1.51,-5.96 -0.35,-0.47 -0.84,-0.81 -1.29,-1.19 h -12.85 c -1.17,1.06 -2.12,2.34 -2.46,3.94 -0.6,2.6 0.09,5.58 1.85,8 0.8,1.11 1.83,2 2.94,2.7 z m 79.93,-0.84 c -0.03,-2.51 -1.17,-4.72 -3.2,-6.24 -2.24,-1.66 -4.72,-2.02 -6.4,-2.02 h -0.31 c -2.35,0.08 -4.29,0.8 -5.78,2.15 -1.48,1.34 -2.4,3.19 -2.72,5.51 -0.06,0.49 0.04,0.96 0.04,1.44 h 18.18 c 0.02,-0.28 0.19,-0.55 0.19,-0.84 z m 16.36,-37.12 c 0,-2.98 -1.2,-5.79 -3.2,-7.55 -0.82,-0.73 -1.79,-1.18 -2.8,-1.51 h -4.71 c -1.97,0.57 -3.82,1.67 -5.25,3.35 -1.12,1.33 -1.82,2.72 -2.12,4.17 0.07,0.49 0.1,0.99 0.1,1.54 0,0.55 -0.03,1.06 -0.1,1.55 0.29,1.4 0.97,2.75 2.03,4.04 h 14.24 c 1.05,-1.63 1.81,-3.49 1.81,-5.59 z m -11.18,-29.99 c -2.37,-0.75 -4.89,-0.34 -6.93,1.13 -0.77,0.55 -1.41,1.29 -2.02,2.07 h 13.26 c -1.21,-1.46 -2.62,-2.69 -4.31,-3.2 z m -35.88,-9.68 c 0.76,0.25 1.58,0.37 2.4,0.37 1.19,0 2.46,-0.26 3.73,-0.78 0.8,-0.34 1.47,-0.84 2.16,-1.32 h -11.14 c 0.86,0.77 1.8,1.38 2.85,1.73 z m -33.47,12.88 c -0.6,-0.77 -1.24,-1.46 -1.94,-1.95 -2.33,-1.63 -5.16,-0.95 -7.76,1.93 -0.01,0.01 -0.01,0.01 -0.02,0.02 z m 1.71,32.38 c 0.48,-0.51 0.84,-0.93 1,-1.17 -0.78,-0.43 -2.96,-1.31 -8.53,-2.14 -4.19,-0.61 -7.6,-1.01 -10.04,-0.08 -1.56,0.57 -2.49,1.78 -2.89,3.39 z m -3.65,23.14 c 1.63,-1.11 2.96,-3.19 4.16,-5.41 h -13.83 c 0.3,1.13 0.87,2.31 1.91,3.51 2.6,2.86 5.43,3.56 7.76,1.9 z m 3.76,9.23 c -0.6,-0.73 -1.29,-1.36 -2.09,-1.82 -1.73,-0.99 -3.81,-1.3 -6.09,-0.88 -2.08,0.37 -3.88,1.38 -5.33,2.7 z m 5.34,17.74 c 1.55,2.15 4.22,3.62 7.15,3.92 0.4,0.05 0.79,0.07 1.16,0.07 2.56,0 5.01,-0.89 6.69,-2.47 0.47,-0.43 0.7,-1.01 1.04,-1.52 z m 23.11,0 c 0.24,0.18 0.38,0.46 0.65,0.62 1.37,0.83 3.04,1.25 4.8,1.25 1.15,0 2.27,-0.18 3.39,-0.54 0.89,-0.29 1.61,-0.85 2.38,-1.33 z m 1.16,-20.84 c 0.02,-2.8 -1.92,-6.28 -3.62,-9.37 -0.47,-0.86 -0.87,-1.5 -1.28,-2.17 h -5.93 c -0.3,0.91 -0.61,1.92 -0.95,3.15 -0.9,3.39 -1.94,7.24 -1.27,9.98 0.14,0.58 0.41,1.06 0.71,1.51 h 11.12 c 0.77,-0.84 1.24,-1.86 1.22,-3.1 z m 14.96,-9.05 c -0.46,-0.87 -1.21,-1.69 -2.06,-2.49 h -12.38 c 0.05,0.2 0.06,0.34 0.11,0.56 0.77,3.43 1.64,7.33 3.5,9.42 1.88,2.17 4.81,2.16 8.02,-0.02 3.14,-2.23 4.17,-4.95 2.81,-7.47 z m 12.16,-2.49 c 0.73,2.3 2.08,4.27 3.87,5.54 1.36,0.98 2.94,1.5 4.56,1.5 0.79,0 1.59,-0.12 2.37,-0.36 2.55,-0.78 4.8,-2.88 6.01,-5.6 0.15,-0.35 0.12,-0.72 0.24,-1.08 z m -21.45,-32.38 c -0.08,0.18 -0.19,0.4 -0.23,0.52 0.85,0.21 3.19,0.55 8.8,0.01 1.4,-0.13 2.87,-0.3 4.29,-0.53 z m -35.41,-22.17 c 0.36,1.45 1.31,2.96 2.47,4.44 h 10.96 c 0.08,-3.29 0.08,-6.84 -1.11,-9.12 -1.3,-2.55 -4.14,-3.25 -7.78,-1.91 -3.61,1.41 -5.26,3.81 -4.54,6.59 z m 4.55,69.05 c 0.2,0.08 0.37,0.08 0.57,0.14 h 4.94 c 0.94,-0.42 1.75,-1.04 2.26,-2.05 1.3,-2.47 1.21,-6.46 1.11,-9.98 -0.02,-1.01 -0.07,-1.8 -0.13,-2.61 h -7.79 c -2.33,2.5 -4.86,5.3 -5.51,7.93 -0.72,2.77 0.93,5.17 4.55,6.57 z m -0.94,-37.82 c 0,1.98 0.4,3.85 1.09,5.59 h 28.39 c 0.68,-1.74 1.09,-3.61 1.09,-5.59 0,-3.4 -1.16,-6.51 -3.05,-9.06 h -24.48 c -1.89,2.55 -3.04,5.66 -3.04,9.06 z m -24.08,-9.06 c -0.62,3.44 0.39,5.94 2.93,6.86 2.43,0.93 5.84,0.54 10.03,-0.08 5.57,-0.82 7.75,-1.71 8.53,-2.12 -0.42,-0.64 -1.76,-2.14 -5.02,-4.66 z m 50.21,-25.79 c 0.04,-2.88 -2.15,-4.8 -5.99,-5.31 -3.82,-0.41 -6.4,0.93 -7.06,3.73 -0.65,2.64 0.29,6.34 1.19,9.64 h 8.95 c 1.49,-2.74 2.93,-5.65 2.91,-8.06 z m 12.13,1.57 c -3.19,-2.17 -6.12,-2.18 -8,-0.01 -1.34,1.51 -2.16,3.97 -2.81,6.5 h 13.93 c 0.66,-2.23 -0.36,-4.54 -3.12,-6.49 z m 19.48,-8.12 h -16.72 c -0.5,1.54 -0.78,3.18 -0.56,4.88 0.32,2.32 1.24,4.17 2.72,5.52 1.49,1.34 3.43,2.07 5.76,2.14 h 0.33 c 1.68,0 4.16,-0.35 6.4,-2.02 2.03,-1.51 3.17,-3.73 3.2,-6.23 0.01,-1.46 -0.43,-2.92 -1.13,-4.29 z m -2.02,41.4 c -0.03,-3.87 -1.69,-6.27 -4.53,-6.57 -2.8,-0.33 -6.48,1.15 -9.74,2.46 -5.24,2.14 -7.15,3.53 -7.79,4.11 0.64,0.58 2.55,1.98 7.79,4.12 1.28,0.51 2.61,1.02 3.94,1.47 h 8.1 c 1.39,-1.08 2.21,-2.96 2.23,-5.59 z m -97.52,-4.4 c 1.47,1.99 3.74,3.13 6.35,3.17 2.88,0 5.13,-1.27 6.51,-2.33 1.57,-1.24 2.61,-2.67 3.14,-4.27 0.03,-0.39 0.12,-0.81 0.18,-1.23 h -17.79 c 0.18,1.73 0.63,3.37 1.61,4.66 z m 22.46,-37 c 0.33,1 0.79,1.96 1.54,2.8 1.51,1.71 3.7,2.91 6.14,3.35 0.66,0.12 1.3,0.18 1.93,0.18 1.55,0 2.94,-0.35 4.16,-1.07 1.73,-0.99 3,-2.61 3.79,-4.81 0.05,-0.15 0.04,-0.3 0.08,-0.45 z m -23.68,144.05 v -5.45 h -10.18 v 5.45 z m -0.1,32.37 c 0.2,-0.97 0.1,-1.63 0.1,-1.63 v -13.01 h -10.18 v 13.01 c 0,0 -0.11,0.66 0.09,1.63 z m -18.04,19.51 h -8.66 v 3.58 h -23.12 v 9.29 h 42.05 z m 184.65,3.58 h -23.12 v -3.58 h -8.65 l -10.27,12.87 h 42.04 z m -39.72,-24.72 v -13.01 h -10.2 v 13.01 c 0,0 -0.1,0.66 0.1,1.63 h 10 c 0.2,-0.97 0.1,-1.63 0.1,-1.63 z m 0,-36.19 h -10.2 v 5.45 h 10.2 z m -32.3,5.45 h 10.19 v -5.45 h -10.19 z m -22.11,0 h 10.2 v -5.45 h -10.2 z m 10.1,32.37 c 0.2,-0.97 0.1,-1.63 0.1,-1.63 v -13.01 h -10.2 v 13.01 c 0,0 -0.1,0.66 0.1,1.63 z m -48.36,0 h 9.99 c 0.2,-0.97 0.1,-1.63 0.1,-1.63 v -13.01 h -10.19 v 13.01 c 0,0 -0.1,0.66 0.1,1.63 z m -0.1,-32.37 h 10.19 v -5.45 h -10.19 z m 70.66,30.74 v -13.01 h -10.19 v 13.01 c 0,0 -0.11,0.66 0.09,1.63 h 10.01 c 0.2,-0.97 0.09,-1.63 0.09,-1.63 z m -92.66,1.63 h 9.99 c 0.2,-0.97 0.09,-1.63 0.09,-1.63 v -13.01 h -10.18 v 13.01 c 0,0 -0.1,0.66 0.1,1.63 z m -0.1,-32.37 h 10.18 v -5.45 h -10.18 z m 817.58,-145.57 v -63.2 h -10.63 v 63.2 z m -10.63,138.42 h 10.63 v -133.02 h -10.63 z m 0,138.43 h 10.63 v -133.02 h -10.63 z m 0,138.42 h 10.63 V 2419.4 h -10.63 z m 0,138.42 h 10.63 v -133.01 h -10.63 z m 0,138.43 h 10.63 v -133.02 h -10.63 z m 0,138.42 h 10.63 v -133.01 h -10.63 z m 0,138.43 h 10.63 V 2973.1 h -10.63 z m 40.97,-968.97 v -63.2 h -19.91 v 63.2 z m -19.91,138.42 h 19.91 v -133.02 h -19.91 z m 0,138.43 h 19.91 v -133.02 h -19.91 z m 0,138.42 h 19.91 V 2419.4 h -19.91 z m 0,138.42 h 19.91 v -133.01 h -19.91 z m 0,138.43 h 19.91 v -133.02 h -19.91 z m 0,138.42 h 19.91 v -133.01 h -19.91 z m 0,138.43 h 19.91 V 2973.1 h -19.91 z m 48.84,-968.97 v -63.2 h -19.88 v 63.2 z m -19.88,138.42 h 19.88 v -133.02 h -19.88 z m 0,138.43 h 19.88 v -133.02 h -19.88 z m 0,138.42 h 19.88 V 2419.4 h -19.88 z m 0,138.42 h 19.88 v -133.01 h -19.88 z m 0,138.43 h 19.88 v -133.02 h -19.88 z m 0,138.42 h 19.88 v -133.01 h -19.88 z m 0,138.43 h 19.88 V 2973.1 h -19.88 z m 48.84,-968.97 v -63.2 h -19.91 v 63.2 z m -19.91,138.42 h 19.91 v -133.02 h -19.91 z m 0,138.43 h 19.91 v -133.02 h -19.91 z m 0,138.42 h 19.91 V 2419.4 h -19.91 z m 0,138.42 h 19.91 v -133.01 h -19.91 z m 0,138.43 h 19.91 v -133.02 h -19.91 z m 0,138.42 h 19.91 v -133.01 h -19.91 z m 0,138.43 h 19.91 V 2973.1 h -19.91 z m 48.84,-968.97 v -63.2 h -19.88 v 63.2 z m -19.88,138.42 h 19.88 v -133.02 h -19.88 z m 0,138.43 h 19.88 v -133.02 h -19.88 z m 0,138.42 h 19.88 V 2419.4 h -19.88 z m 0,138.42 h 19.88 v -133.01 h -19.88 z m 0,138.43 h 19.88 v -133.02 h -19.88 z m 0,138.42 h 19.88 v -133.01 h -19.88 z m 0,138.43 h 19.88 V 2973.1 h -19.88 z m 48.84,-968.97 v -63.2 h -19.91 v 63.2 z m -19.91,138.42 h 19.91 v -133.02 h -19.91 z m 0,138.43 h 19.91 v -133.02 h -19.91 z m 0,138.42 h 19.91 V 2419.4 h -19.91 z m 0,138.42 h 19.91 v -133.01 h -19.91 z m 0,138.43 h 19.91 v -133.02 h -19.91 z m 0,138.42 h 19.91 v -133.01 h -19.91 z m 0,138.43 h 19.91 V 2973.1 h -19.91 z m 48.87,-138.43 v -4.19 h -5.52 v -24.28 h -14.39 v 28.47 z m -19.91,138.43 h 19.91 V 2973.1 h -19.91 z m 867.04,-963.16 c 0,0 0.8,-13.32 0,-18.02 -0.77,-4.69 3.01,-0.52 3.01,-6.13 0,-5.6 5,-11 6.43,-12.42 1.44,-1.44 0.87,-1.4 0.87,-6.54 0,-5.13 2.78,-7.74 2.78,-7.74 l -1.11,-74.19 h -19.02 v 125.04 z m 172.87,430.64 h 18.59 v -180.35 c -16.79,-8.1 -30.39,-17.18 -41.05,-25.7 z m -34.33,279.59 c -0.08,0.41 -0.18,0.82 -0.29,1.24 h 53.6 c -0.23,-0.7 -0.39,-1.42 -0.39,-2.17 v -261.18 h -18.77 z m -3.43,10.37 -10.63,11.11 h 10.63 z m -15.01,-3.9 v 11.99 l 11.48,-11.99 z m -5.24,0 h -11.47 l 11.47,11.99 z m -15.01,15.01 h 10.63 l -10.63,-11.11 z m -5.26,-11.11 -10.6,11.11 h 10.6 z m -14.98,-3.9 v 11.99 l 11.47,-11.99 z m -5.24,1.45 -4.46,5.9 4.46,4.64 z m -10.26,13.56 h 5.88 l -3.28,-3.43 z m 61.07,121.94 v -116.7 h -64.58 z m 0,55.76 v -52.15 l -61.28,-110.72 z m 0,40.36 v -35.39 l -55.63,-147.85 z m 15.17,-229.17 v 11.11 h 10.62 z m 15,8.09 v -11.99 h -11.5 z m -23.18,124.96 38.61,-69.76 -7.69,-46.94 h -30.92 z m 0,55.76 41.21,-109.59 -2.16,-13.17 -39.05,70.61 z m 0,40.36 42.71,-140.74 -0.93,-5.75 -41.78,111.1 z m 43.87,-144.53 1.19,-3.95 -0.93,-4.25 -1.11,2.99 z m 18.05,110.59 v -36.85 l -16.12,-74.18 -1.31,4.34 z m -13.26,-184.12 h 10.63 l -10.63,-11.11 z m -6.85,46.37 2.44,-4.43 -8.99,-25.69 z m -1.29,2.33 -2.84,-13.08 2.3,14.06 z m 0.54,2.6 -0.65,1.19 2.04,12.35 1.01,-2.66 z m 6.47,0 -2.5,-7.17 -2.66,4.85 2.22,10.19 z m 1.65,4.67 -0.75,-2.12 -3.17,8.46 0.82,3.84 z m 0.98,2.81 -3.3,10.91 15.06,69.35 v -46.76 z m 0.88,-2.84 10.88,31.05 v -66.97 z m -1.63,-4.64 0.65,1.83 5.54,-18.31 z m 11.84,-36.47 -15.09,27.26 2.35,6.66 z m -28.01,-9.59 12.15,34.64 16.53,-29.87 v -4.77 z m 6.68,-20.25 h -11.5 v 11.99 z m -7.12,15.01 h 10.63 v -11.11 z m 30.88,-3.02 v -11.99 h -11.51 z m 5.23,0 11.48,-11.99 h -11.48 z m 1.75,13.03 16.54,29.87 12.14,-34.64 h -28.68 z m 0,76.98 10.92,-31.05 -10.92,-35.92 z m 0,52.05 15.07,-69.35 -3.3,-10.91 -11.77,33.5 z m 0,45.08 17.41,-106.69 -1.29,-4.34 -16.12,74.2 z m 18.91,-115.8 -1.11,-2.99 -0.93,4.25 1.21,3.95 z m 43.04,149.74 v -35.39 l -41.8,-111.1 -0.93,5.75 z m 7.66,-218.06 -10.62,-11.11 v 11.11 z m -0.67,121.94 64.58,-116.7 h -64.58 z m 0,55.76 61.26,-162.87 -61.26,110.72 z m 0,40.36 55.61,-183.24 -55.61,147.85 z m 58.44,-221.49 -3.27,3.43 h 5.85 z m -7.66,-10.13 v 10.54 l 4.47,-4.64 z m -20.24,2.45 v 11.11 h 10.62 z m 15.01,-3.9 h -11.48 l 11.48,11.99 z m -20.25,3.9 -10.62,11.11 h 10.62 z m -14.98,-3.9 v 11.99 l 11.47,-11.99 z m -5.26,0 h -11.5 l 11.5,11.99 z m -55.5,3.9 v 11.11 h 10.62 z m 15.01,8.09 v -11.99 h -11.48 z m 16.74,-11.99 h -11.51 v 11.99 z m -7.13,15.01 h 10.63 v -11.11 z m -19.78,52.18 38.61,69.76 v -116.7 h -30.97 z m -3.19,-5.81 6.52,-30.12 -9,25.69 z m 1.34,6.12 -0.65,-1.19 -2.34,10.88 0.98,2.66 z m 2.78,-16.87 -2.86,13.08 0.54,1 z m -3.56,32.49 41.24,109.59 v -52.15 l -39.07,-70.61 z m -6.31,-16.81 2.96,7.87 2.22,-10.19 -2.71,-4.85 z m -1.65,4.67 3.09,10.18 0.82,-3.84 -3.19,-8.46 z m -6.43,-21.15 5.57,18.31 0.65,-1.83 z m 7.1,13.93 2.34,-6.66 -15.09,-27.26 z m -0.16,-59.86 -10.62,11.11 h 10.62 z m 42.3,-10.37 -34.18,-262.11 h -18.77 v 261.18 c 0,0.75 -0.13,1.47 -0.36,2.17 h 53.62 c -0.16,-0.42 -0.26,-0.83 -0.31,-1.24 z m -16.57,-442.57 c -13.26,-2.98 -25.41,-6.78 -36.38,-11.19 v 174.17 h 18.62 z m -17.67,-478.41 v 63.71 c 0,0 3.78,2.34 1.69,4.43 -2.09,2.08 0.69,2.19 1.92,3.4 1.21,1.21 0.33,6.7 2.42,6.7 2.09,0 2.84,3.42 1.48,4.78 0,0 0.96,1.04 0.96,3.13 h -7.83 v 12.86 c 0,0 3.16,1.8 3.39,5.78 h 54.37 l 11.44,-104.79 z m 56.52,122.28 h -55.54 c 0.27,12.65 4.29,60.25 47.38,74.84 z m 19.79,79.2 c 78.8,0 75.34,-82.39 75.34,-82.39 h -10.29 v -4.57 h 1.56 v -9.33 h 5.6 c 0,-4.3 3.46,-6.18 3.46,-6.18 v -12.86 h -7.83 c 0,-2.09 0.96,-3.13 0.96,-3.13 -1.35,-1.36 -0.6,-4.78 1.49,-4.78 2.08,0 1.21,-5.49 2.42,-6.7 1.23,-1.21 4.01,-1.32 1.92,-3.4 -2.09,-2.09 1.69,-4.43 1.69,-4.43 v -63.71 h -68.72 l -21.86,200.46 c 4.43,0.65 9.16,1.02 14.26,1.02 z m 352.07,266.12 v 18.32 c 0.66,0.4 1.31,0.79 1.95,1.12 v -18.62 c -0.67,-0.27 -1.31,-0.55 -1.95,-0.82 z m -1.68,19.26 c -1.04,-0.66 -2.08,-1.34 -3.12,-2.07 v 3.33 c 1.11,0.72 2.15,1.39 3.12,1.98 z m 0,-20.03 c -1.09,-0.51 -2.13,-1.03 -3.12,-1.55 v 17.45 c 1.03,0.74 2.08,1.46 3.12,2.13 z m 1.68,24.26 c 0.74,0.42 1.38,0.78 1.95,1.09 v -3.23 c -0.64,-0.31 -1.29,-0.68 -1.95,-1.07 z m 2.87,38.23 c 0.62,0.99 3.93,3.2 7.55,5.32 v -13.76 c -3.15,-1.27 -5.67,-2.67 -7.55,-4.18 z m 12.58,8.07 c 1.61,0.81 4.33,2.04 7.97,3.37 v -15.95 c -2.9,-0.67 -5.57,-1.38 -7.97,-2.13 z m 0,21.96 c 1.61,0.79 4.33,2.05 7.97,3.35 v -18.35 c -3.37,-1.16 -6.05,-2.32 -7.97,-3.2 z m 0,22.88 c 0.96,0.91 3.36,2.87 7.97,4.81 v -20.73 c -3.35,-1.17 -6.05,-2.31 -7.97,-3.22 z m 11.33,-40.34 c 3.08,0.97 6.66,1.91 10.63,2.68 v -17.2 c -3.82,-0.57 -7.36,-1.19 -10.63,-1.84 z m 0,21.96 c 2.09,0.65 4.39,1.29 6.91,1.87 -0.2,-1.5 -0.34,-3.03 -0.34,-4.61 0,-4.83 0.98,-9.39 2.7,-13.35 -3.42,-0.67 -6.5,-1.48 -9.27,-2.32 z m 0,24.45 c 2.88,0.96 6.39,1.85 10.63,2.54 v -13.69 c -1.32,-2.37 -2.38,-4.98 -3.07,-7.8 -2.75,-0.59 -5.26,-1.26 -7.56,-1.96 z m 13.99,-47.97 c 0.87,-1.01 1.83,-1.92 2.82,-2.72 v -9.38 c -0.96,-0.12 -1.9,-0.25 -2.82,-0.37 z m 0,50.98 c 3.79,0.47 8.1,0.77 13,0.84 v -3.26 c -4.98,-0.48 -9.49,-3.03 -13,-7.01 z m 16.36,0.84 c 4.88,-0.07 9.19,-0.37 13,-0.84 v -9.43 c -3.53,3.98 -8.04,6.53 -13,7.01 z m 16.35,-47.58 c 3.98,-0.77 7.54,-1.71 10.62,-2.68 v -16.36 c -3.25,0.65 -6.79,1.27 -10.62,1.84 z m 0,46.27 c 4.23,-0.69 7.74,-1.58 10.62,-2.54 v -20.91 c -2.29,0.7 -4.81,1.37 -7.55,1.96 -0.7,2.82 -1.74,5.45 -3.07,7.8 z m 13.98,-50.1 c 3.64,-1.31 6.36,-2.54 7.97,-3.35 v -14.71 c -2.4,0.75 -5.05,1.46 -7.97,2.13 z m 0,21.96 c 3.66,-1.3 6.37,-2.56 7.97,-3.35 v -18.2 c -1.91,0.88 -4.6,2.04 -7.97,3.2 z m 0,24.34 c 4.63,-1.94 7.03,-3.9 7.97,-4.81 v -19.14 c -1.91,0.91 -4.6,2.05 -7.97,3.22 z m 12.36,-412.91 v -55.06 h -7.11 v 56.82 c 0.76,0.2 1.49,0.3 2.2,0.3 2.8,0 4.43,-1.53 4.91,-2.06 z m 0.64,360.51 c 3.62,-2.1 6.93,-4.33 7.55,-5.32 v -12.62 c -1.86,1.51 -4.38,2.91 -7.55,4.18 z m 8.49,-47.6 c 0.62,-0.33 1.27,-0.72 1.93,-1.12 v -18.32 c -0.64,0.27 -1.28,0.55 -1.93,0.82 z m 0,5.14 c 0.55,-0.31 1.21,-0.67 1.93,-1.09 v -3.21 c -0.66,0.39 -1.31,0.76 -1.93,1.07 z m 3.61,-7.32 c 1.03,-0.67 2.09,-1.39 3.12,-2.13 v -17.46 c -0.99,0.53 -2.03,1.05 -3.12,1.56 z m 0,5.24 c 0.97,-0.59 2.03,-1.26 3.12,-1.98 V 2417 c -1.03,0.73 -2.09,1.41 -3.12,2.07 z m -35.36,75.62 c 2.51,-0.58 4.82,-1.22 6.9,-1.87 v -18.41 c -2.75,0.84 -5.85,1.65 -9.27,2.32 1.72,3.96 2.7,8.52 2.7,13.35 0,1.58 -0.12,3.11 -0.33,4.61 z m -9.91,-37.49 v 9.38 c 1.01,0.8 1.95,1.71 2.84,2.72 v -12.47 c -0.94,0.12 -1.88,0.25 -2.84,0.37 z m 935.58,-173.86 h 3.99 v -6.48 h -3.99 z m 4.84,-28.77 h -2.85 v 9.51 h 2.85 z m 0.39,28.77 h 3.98 v -6.48 h -3.98 z m 5.22,0 h 3.99 v -6.48 h -3.99 z m -6.91,-104.02 v 7.43 h 2.08 v -7.43 z M 752.523,1931.25 c -5.601,-5.49 -11.386,-10.77 -17.355,-15.84 v 21.56 c 6.059,6.84 11.812,13.92 17.355,21.15 z m 0,-24.59 c -0.925,-0.15 -1.851,-0.33 -2.753,-0.51 v 18.41 c 0.929,0.9 1.863,1.77 2.753,2.67 z m -3.652,-0.66 c -4.59,-0.81 -9.144,-1.62 -13.703,-2.49 v 7.89 c 4.676,3.98 9.266,8.09 13.703,12.32 z m -14.601,8.66 c -1.442,-1.22 -2.852,-2.42 -4.29,-3.59 0,0 0,0 -0.031,-0.03 -0.66,-0.54 -0.746,-1.5 -0.211,-2.19 0.211,-0.24 0.481,-0.39 0.782,-0.45 v -5.73 c -4.555,-0.81 -9.082,-1.62 -13.641,-2.49 v 17.72 c 6.055,5.79 11.812,11.82 17.391,18.08 z m 0,-11.3 c -0.961,-0.15 -1.922,-0.33 -2.852,-0.51 v 5.52 c 0.184,0.06 0.359,0.15 0.543,0.27 0.777,0.66 1.527,1.34 2.309,1.98 z m 6708.13,512.46 c -1.09,-0.79 -2.13,-1.57 -3.11,-2.32 v 3.39 c 1.03,0.8 2.08,1.57 3.11,2.29 z m 0,-19.27 c -1.09,-0.63 -2.13,-1.27 -3.11,-1.93 v 16.75 c 0.96,0.75 2,1.54 3.11,2.36 z m -4.79,15.66 c -1.12,-0.89 -2.06,-1.67 -2.78,-2.25 v 3.05 c 0.89,0.87 1.81,1.71 2.78,2.52 z m 0,-18.76 c -1,-0.74 -1.94,-1.48 -2.78,-2.23 v 16.56 c 0.45,0.38 1.43,1.19 2.78,2.26 z m 128.61,20.28 c 1.11,-0.82 2.17,-1.61 3.12,-2.36 v -16.75 c -0.97,0.66 -2.01,1.3 -3.12,1.93 z m 0,5.45 c 1.05,-0.72 2.08,-1.49 3.12,-2.29 v -3.39 c -0.97,0.75 -2.02,1.53 -3.12,2.32 z m 4.8,-9.14 c 1.35,-1.07 2.32,-1.88 2.77,-2.26 v -16.56 c -0.84,0.75 -1.76,1.49 -2.77,2.23 z m 0,5.49 c 0.96,-0.81 1.9,-1.65 2.77,-2.52 v -3.05 c -0.71,0.58 -1.65,1.36 -2.77,2.25 z m 1715.04,-599.08 c 0,0 -16.91,1.14 -49.08,3.3 -3.97,2.27 -8.08,3.73 -11.76,3.73 -12.7,0 -74.1,19.59 -59.81,52.93 14.29,33.35 -41.28,26.2 -51.6,66.69 -10.32,40.49 -60.74,7.54 -92.1,38.9 -31.36,31.36 -77.81,-6.35 -89.18,5.03 -11.38,11.38 -42.35,-15.88 -47.64,-31.23 -5.29,-15.35 -17.47,-25.93 -78.34,-2.33 -60.86,23.6 -70.92,94.96 -76.74,106.6 -5.82,11.65 -14.03,38.38 -35.99,16.41 -6.26,-6.26 -17.42,-6.75 -30.17,-4.27 v 59.32 h -14.29 v 5.55 l -21.18,19.85 -14.29,-14.29 v 22.76 h -11.11 v -25.01 h -36.52 v -32.6 c -5.35,1.34 -10.56,2.99 -14.29,4.95 -1.58,0.82 -3.97,1.2 -6.89,1.26 v 33.14 l 3.72,2.91 v 20.78 h -76.25 l -0.67,80.07 1.99,1.47 h -1.12 v 15.12 l 2.85,2.94 v 1.38 h -7.84 v 16.51 h -0.48 l -7.3,5.83 -1.02,5.24 -1.02,-5.24 -7.3,-5.83 h -0.48 v -16.51 h -7.84 v -1.38 l 2.86,-2.94 v -15.12 h -1.13 l 1.99,-1.47 -0.63,-75.62 c -10.75,5.44 -29.42,13.94 -41.11,13.94 0,0 -0.67,3.45 -4.11,3.45 -3.43,0 -4.1,-3.45 -4.1,-3.45 -17.2,0 -49.49,-18.39 -49.49,-18.39 h -59.01 v -11.38 h -106.46 v -7.15 h 4.76 v -4.36 l 3.44,-2.39 v -44.33 l -1.52,-1.52 v -1.8 c -5.89,-0.31 -12.64,-0.09 -20.11,2.4 -22.23,7.41 -37.31,-32.02 -45.52,-40.23 -8.2,-8.2 -58.75,-20.11 -87.33,-10.58 -28.58,9.52 -41.28,-17.47 -58.75,-34.94 -17.47,-17.46 -74.63,0 -106.39,0 -31.75,0 -47.63,-23.81 -47.63,-47.63 0,-21.06 -6.26,-43.38 -39.52,-80.09 -67.59,2.15 -136.86,4.24 -207.56,6.28 l -15.32,442.24 c 0.64,0.86 2.47,3.58 2,6.36 -0.25,1.51 -1.11,2.77 -2.57,3.74 0.03,3.39 0.77,24.97 14.98,27.67 4.33,0.82 6.7,3.6 6.33,7.45 -0.26,2.83 -1.95,5.98 -5.05,9.16 0.06,0.11 0.1,0.25 0.1,0.38 v 23.25 c 0,0.22 -0.08,0.44 -0.24,0.59 -6,6.01 -14.24,10.67 -17.41,12.35 v 9.23 c 1.29,1.24 3.93,4.36 2.78,8.33 -0.1,0.34 -0.21,0.67 -0.36,0.99 v 16.88 c 0,0.77 -0.04,3.04 -10.91,8.99 v 39.43 c 2.25,1.32 5.45,3.76 5.75,7.19 0.31,3.43 -2.33,6.87 -7.83,10.26 -6.59,4.07 -13.72,7.36 -20,10.26 -9.01,4.16 -16.79,7.75 -16.79,11.04 v 3.74 c 0,0.09 -0.02,0.15 -0.04,0.24 1.51,1.54 2.45,3.65 2.45,5.99 0,3.89 -2.61,7.12 -6.17,8.17 l -1.54,26.89 c -0.02,0.07 -0.03,0.1 -0.05,0.17 l -0.02,0.08 c -0.07,0.2 -0.2,0.35 -0.4,0.45 -0.07,0.04 -0.15,0.05 -0.22,0.07 -0.03,0 -0.07,0.02 -0.1,0.02 h -0.07 c -0.01,0 -0.01,0 -0.03,0 -0.04,0 -0.05,-0.02 -0.09,-0.02 -0.06,0 -0.15,-0.02 -0.21,-0.05 -0.02,-0.02 -0.05,-0.03 -0.07,-0.05 -0.07,-0.03 -0.14,-0.08 -0.18,-0.13 -0.04,-0.04 -0.05,-0.07 -0.07,-0.1 -0.03,-0.05 -0.07,-0.11 -0.1,-0.15 -0.02,-0.06 -0.03,-0.12 -0.03,-0.18 -0.03,-0.03 -0.04,-0.06 -0.04,-0.11 l -1.56,-26.89 c -3.56,-1.05 -6.18,-4.28 -6.18,-8.17 0,-2.34 0.95,-4.45 2.47,-5.99 -0.03,-0.09 -0.05,-0.15 -0.05,-0.24 v -3.74 c 0,-3.29 -7.78,-6.88 -16.77,-11.04 -6.3,-2.9 -13.41,-6.19 -20.02,-10.26 -5.48,-3.39 -8.12,-6.83 -7.83,-10.26 0.3,-3.43 3.5,-5.87 5.75,-7.19 v -39.43 c -10.87,-5.97 -10.9,-8.22 -10.9,-8.99 v -16.88 c -0.14,-0.32 -0.27,-0.65 -0.37,-0.99 -1.14,-3.97 1.49,-7.09 2.8,-8.33 v -9.23 c -3.17,-1.68 -11.41,-6.34 -17.41,-12.35 -0.17,-0.15 -0.26,-0.37 -0.26,-0.59 v -23.25 c 0,-0.13 0.05,-0.27 0.11,-0.38 -3.11,-3.18 -4.79,-6.33 -5.06,-9.16 -0.36,-3.85 2,-6.63 6.33,-7.45 14.19,-2.7 14.95,-24.28 14.98,-27.67 -1.44,-0.97 -2.32,-2.23 -2.56,-3.74 -0.48,-2.78 1.35,-5.5 1.99,-6.36 l -14.42,-416.18 h -47.76 l -2.58,172.94 c 0,0 2.77,2.61 2.77,7.74 0,5.14 -0.56,5.1 0.88,6.54 1.42,1.42 6.43,6.82 6.43,12.42 0,5.61 3.78,1.44 3.01,6.13 -0.8,4.7 0,18.02 0,18.02 h 12 l 3.71,3.71 v 15.45 h -17.16 v 19.06 l -3.4,2.08 0.44,57.24 c 0,0 5.22,0 5.22,7.64 0,7.66 -2.42,4.37 -5.39,7.31 -2.96,2.96 1.4,2.79 1.4,6.78 0,4.01 0.52,12.71 -4.53,12.71 -5.05,0 -0.52,9.92 -14.96,6.27 -14.43,-3.66 -12.01,4.86 -17.22,-3.13 -5.22,-8.02 -6.79,-8.35 -9.04,-6.1 0,0 -1.05,1.4 -1.05,3.38 0,0 -0.69,1.67 2.26,3.05 2.96,1.4 5.57,4.53 5.57,11.23 0,6.7 -7.31,9.31 -7.31,9.31 0,0 0.36,5.64 -2.25,5.64 -2.61,0 -2.28,-5.64 -2.28,-5.64 0,0 -7.3,-2.61 -7.3,-9.31 0,-6.7 2.61,-9.83 5.57,-11.23 2.97,-1.38 2.26,-3.05 2.26,-3.05 0,0 -1.74,-5.74 -6.31,0 -4.57,5.74 -9.25,10.96 -14.09,10.96 0,0 1.09,24.63 -26.74,37.16 0,0 -5.74,9.56 -19.99,14.09 0,0 -54.63,79.49 -179.88,79.49 -16.13,0 -31.05,-1.36 -44.88,-3.66 l -18.42,168.86 35.1,269.1 c 0.13,1.06 0,2.09 -0.31,3.07 h 52.07 l 6.66,8.74 4.23,5.57 2.65,3.51 5.81,7.66 h -4.85 l -1.68,4.44 -65.07,214.42 v 21.32 c 0,1.91 -1.57,3.51 -3.51,3.51 -1.93,0 -3.48,-1.6 -3.48,-3.51 v -21.32 l -43.38,-142.86 -18.57,113.71 v 78.15 c 0,2.4 -1.96,4.36 -4.38,4.36 -2.4,0 -4.36,-1.96 -4.36,-4.36 v -78.15 l -18.57,-113.71 -43.35,142.86 v 21.32 c 0,1.91 -1.57,3.51 -3.51,3.51 -1.93,0 -3.48,-1.6 -3.48,-3.51 v -21.32 l -65.09,-214.42 -1.66,-4.44 h -4.82 l 19.34,-25.48 h 52.02 c -0.33,-0.98 -0.44,-2.01 -0.3,-3.07 l 35.07,-269.1 -24.92,-228.52 c -9.51,-9.44 -14.23,-16.17 -14.23,-16.17 -14.26,-4.53 -20,-14.09 -20,-14.09 -27.82,-12.53 -26.74,-37.16 -26.74,-37.16 -4.84,0 -9.51,-5.22 -14.09,-10.96 -4.57,-5.74 -6.3,0 -6.3,0 0,0 -0.71,1.67 2.25,3.05 2.97,1.4 5.58,4.53 5.58,11.23 0,6.7 -7.31,9.31 -7.31,9.31 0,0 0.34,5.64 -2.27,5.64 -2.61,0 -2.26,-5.64 -2.26,-5.64 0,0 -7.3,-2.61 -7.3,-9.31 0,-6.7 2.61,-9.83 5.57,-11.23 2.94,-1.38 2.26,-3.05 2.26,-3.05 0,-1.98 -1.05,-3.38 -1.05,-3.38 -2.25,-2.25 -3.82,-1.92 -9.04,6.1 -5.22,7.99 -2.8,-0.53 -17.22,3.13 -14.45,3.65 -9.91,-6.27 -14.97,-6.27 -5.05,0 -4.53,-8.7 -4.53,-12.71 0,-3.99 4.37,-3.82 1.4,-6.78 -2.96,-2.94 -5.38,0.35 -5.38,-7.31 0,-7.64 5.22,-7.64 5.22,-7.64 l 0.43,-57.24 -3.4,-2.08 v -19.06 h -8.48 v 600.3 h -65.22 v 120.86 h -65.22 v 120.23 h -64.19 v 49.13 c 0.96,-1.33 1.87,-2.96 1.87,-4.31 0,-1.58 1.12,-2.96 3.18,-3.86 1.28,-0.53 2.79,-0.88 4.22,-0.88 1.55,0 2.97,0.41 3.85,1.32 1.73,1.81 1.92,4.17 1.36,5.59 -0.4,0.98 -1.18,1.58 -2.1,1.58 -1.12,0 -4.41,1.42 -6.15,7.8 -1.49,5.62 -4.56,6.99 -6.23,7.29 v 2.95 c 0,0.61 -0.45,1.08 -1.02,1.08 -0.58,0 -1.02,-0.47 -1.02,-1.08 v -3.96 c 0,-0.02 0,-0.04 0,-0.04 v -62.61 h -64.2 v -120.23 h -65.22 V 2762.42 H 6398 v -725.99 h -97.77 v 902.79 h -19.17 v 24.28 h -25.56 v 21.73 h -24.28 V 2998 h -19.16 v 17.9 H 6012.7 V 2998 h -19.17 v -12.77 h -24.28 v -21.73 h -1.61 v 232.3 h -183.08 v -65.43 h -10.43 v 65.43 h -20.51 v -86.64 h -31.63 v -850.48 h -23.66 v 1006.91 h -51.28 v 56.99 h -288.12 v -56.99 h -51.28 V 1988.16 l -0.25,0.08 v 22.78 l -6.88,22.94 v 112.36 h -5.86 v 39.49 h 2.04 v 5.85 h -1.4 l -7.39,26.25 v 50.63 h 2.48 v 3.64 h -3.81 v 75.67 l -4.03,4.4 v 25.41 l -3.82,5.35 v 107.52 l -6.5,11.98 v 46.55 l -4.96,4.59 h -11.65 l -4.02,-2.66 h -13.18 v 7.83 h -79.13 v -7.83 h -12.03 l -1.14,24.54 -4.01,2.66 h -11.67 l -4.96,-4.59 v -71.09 l -6.5,-11.98 v -5.9 l -23.62,256.5 v 509.26 h -6.88 l -41.95,21 -35.35,383.87 -8.27,7.66 -8.26,-7.66 -35.35,-383.87 -41.92,-21 h -6.92 v -509.26 l -23.59,-256.25 v 5.65 l -6.5,11.98 v 71.09 l -4.96,4.59 h -11.67 l -4.01,-2.66 -1.14,-24.54 h -12.03 v 7.83 h -79.13 v -7.83 h -13.18 l -4,2.66 h -11.67 l -4.96,-4.59 v -46.55 l -6.5,-11.98 v -107.52 l -3.82,-5.35 v -25.41 l -4.03,-4.4 v -75.67 h -3.82 v -3.64 h 2.49 v -50.63 l -7.38,-26.25 h -1.41 v -5.85 h 2.04 v -39.49 h -5.86 v -90.1 h -7.12 v 1008.24 h -54 v 18.17 h -26.34 v 11.86 h -60.15 v 65.86 h -8.09 v 52.69 h -6.41 v 26.89 c 1.42,1.45 3.79,3.33 4.76,3.02 0.27,-0.08 0.47,-0.41 0.56,-0.98 0.79,-4.56 3.54,-8.2 3.65,-8.35 0.13,-0.17 0.32,-0.27 0.54,-0.27 0.06,0 0.1,0 0.15,0.02 0.26,0.06 0.47,0.27 0.52,0.54 0.99,5.11 -1.13,8.11 -1.2,8.19 -0.03,0.06 -2.7,4.26 -4.21,10.25 -0.65,2.66 -1.72,4.36 -3.16,5.08 -0.61,0.3 -1.17,0.37 -1.61,0.36 v 2.78 c 0,0.38 -0.3,0.68 -0.68,0.68 -0.38,0 -0.68,-0.3 -0.68,-0.68 v -47.53 h -1 V 3069.2 h -26.7 v 143.84 h -1.24 v 33.2 c 1.26,-1.3 3.2,-3.42 3.98,-4.9 0.51,-0.96 1.1,-1.48 1.84,-1.59 0.1,-0.03 0.18,-0.03 0.27,-0.03 1.15,0 2.22,1.07 3.29,2.13 0.97,0.98 1.38,2.39 1.08,3.71 -0.26,1.08 -0.97,1.89 -1.94,2.21 -1.61,0.54 -3.27,2.75 -4.73,6.21 -0.64,1.53 -1.51,2.49 -2.57,2.84 -0.45,0.16 -0.88,0.17 -1.22,0.13 v 3.62 c 0,0.38 -0.32,0.68 -0.69,0.68 -0.38,0 -0.68,-0.3 -0.68,-0.68 v -47.53 h -6.18 v -52.69 h -8.07 v -65.86 h -60.15 v -11.86 h -26.34 v -18.17 h -54.02 v -843.61 h -72.92 v 1012.46 l -227.8,-92.7 v -7.11 l -11.71,-2.34 v -785.93 h -66.87 v 618.56 c 0,62.29 -175.09,92.96 -175.09,92.96 v -27.83 h -100.17 c -39.18,-15.3 -74.87,-37 -74.87,-65.13 v -758.38 h -64 v 13.2 h -9.91 v 15.69 h 9.91 v 14.76 h -9.91 v 15.7 h 9.91 v 14.76 h -9.91 v 15.69 h 9.91 v 14.76 h -9.91 v 15.7 h 9.91 v 14.76 h -9.91 v 15.7 h 9.91 v 14.75 h -9.91 v 15.7 h 9.91 v 14.76 h -9.91 v 15.7 h 9.91 v 14.76 h -9.91 v 15.69 h 9.91 v 14.76 h -9.91 v 15.7 h 9.91 v 14.76 h -9.91 v 15.69 h 9.91 v 14.76 h -9.91 v 15.7 h 9.91 v 14.76 h -9.91 v 15.7 h 9.91 v 14.75 h -9.91 v 15.7 h 9.91 v 14.76 h -9.91 v 15.7 h 9.91 v 14.75 h -9.91 v 15.7 h 9.91 v 14.76 h -9.91 v 15.7 h 9.91 v 14.76 h -9.91 v 15.69 h 9.91 v 14.76 h -9.91 v 15.7 h 9.91 v 14.76 h -9.91 v 15.69 h 9.91 v 14.76 h -9.91 v 15.7 h 9.91 v 14.76 h -9.91 v 15.69 h 9.91 v 14.76 h -9.91 v 15.7 h 9.91 v 14.76 h -9.91 v 37.62 c 0,0 -6.31,2.02 -17.44,4.21 v 28.08 c 0,0 -23.18,17.55 -145,17.55 -121.82,0 -145,-17.55 -145,-17.55 v -28.08 c -11.07,-2.21 -17.41,-4.21 -17.41,-4.21 v -37.62 h -9.94 v -14.76 h 9.94 v -15.7 h -9.94 v -14.76 h 9.94 v -15.69 h -9.94 v -14.76 h 9.94 v -15.7 h -9.94 v -14.76 h 9.94 v -15.69 h -9.94 v -14.76 h 9.94 v -15.7 h -9.94 v -14.76 h 9.94 v -15.69 h -9.94 v -14.76 h 9.94 v -15.7 h -9.94 v -14.76 h 9.94 v -15.7 h -9.94 v -14.75 h 9.94 v -15.7 h -9.94 v -14.76 h 9.94 v -15.7 h -9.94 v -14.75 h 9.94 v -15.7 h -9.94 v -14.76 h 9.94 v -15.7 h -9.94 v -14.76 h 9.94 v -15.69 h -9.94 v -14.76 h 9.94 v -15.7 h -9.94 v -14.76 h 9.94 v -15.69 h -9.94 v -14.76 h 9.94 v -15.7 h -9.94 v -14.76 h 9.94 v -15.7 h -9.94 v -14.75 h 9.94 v -15.7 h -9.94 v -14.76 h 9.94 v -15.7 h -9.94 v -14.76 h 9.94 v -15.69 h -9.94 v -14.76 h 9.94 v -15.7 h -9.94 v -14.76 h 9.94 v -15.69 h -9.94 v -14.76 h 9.94 v -15.7 h -9.94 v -14.76 h 9.94 v -15.69 h -9.94 v -14.76 h 9.94 v -15.7 h -9.94 v -14.76 h 9.94 v -15.7 h -9.94 v -7.75 h -51.59 v 381.1 h -47.19 v 171.5 99.02 h -33.16 v 56.34 h -16.05 v 20.69 h -10.69 v 32.45 h -61.34 v 6.41 l -4.45,4.29 -4.11,-4.47 v -5.52 h -13.38 l -12.76,65.61 -2.74,70.07 -1.79,1.87 -1.78,-1.87 -2.74,-70.07 -12.77,-65.61 h -13.37 v 5.52 l -4.11,4.47 -4.45,-4.29 v -6.41 h -61.34 v -32.45 h -10.7 v -20.69 h -16.04 v -56.34 h -33.16 v -99.02 -171.5 h -34.71 c -30.2,9.16 -60.1,19.36 -89.76,30.25 l -2.16,185.46 h -5.94 v 47.57 h -9.22 l -1.62,24.34 h -160.07 l -1.63,-24.34 h -9.18 v -47.57 h -5.97 l -1.16,-101.54 c -40.91,19.76 -81.43,40.5 -120.96,62.83 v 3.93 c 0,0.39 -0.17,0.81 -0.48,1.08 l -3.89,3.72 c -0.07,0.06 -0.15,0.09 -0.22,0.15 -0.08,0.03 -0.14,0.12 -0.26,0.15 -0.1,0.03 -0.18,0.03 -0.27,0.06 -0.09,0.03 -0.18,0.06 -0.27,0.06 -0.1,0 -0.19,-0.03 -0.31,-0.06 -0.08,-0.03 -0.18,-0.03 -0.26,-0.06 -0.09,-0.03 -0.16,-0.09 -0.24,-0.15 -0.09,-0.06 -0.15,-0.09 -0.24,-0.15 l -3.9,-3.72 c -0.27,-0.27 -0.45,-0.69 -0.45,-1.08 v -5.1 l -7.02,-6.59 c -0.3,-0.27 -0.45,-0.69 -0.45,-1.08 v -0.54 c -0.72,-0.72 -1.41,-1.44 -2.13,-2.16 l -38.38,6.63 h -0.06 c -9.89,5.36 -19.76,10.82 -29.57,16.34 v 1.89 c 0,0.42 -0.15,0.81 -0.44,1.08 l -3.96,3.75 c -0.06,0.05 -0.12,0.08 -0.18,0.15 -0.09,0.05 -0.19,0.12 -0.27,0.15 -0.09,0.05 -0.18,0.05 -0.24,0.05 -0.12,0.04 -0.24,0.07 -0.33,0.07 -0.1,0 -0.15,-0.03 -0.24,-0.03 -0.12,-0.04 -0.21,-0.04 -0.33,-0.09 -0.09,-0.03 -0.15,-0.1 -0.24,-0.15 -0.06,-0.04 -0.15,-0.07 -0.21,-0.15 l -3.96,-3.75 c -0.3,-0.27 -0.45,-0.66 -0.45,-1.08 v -3.06 c -47.08,-50.44 -96.35,-98.99 -146.57,-146.36 -51.34,-48.25 -103.99,-95.12 -158.09,-140.28 -54.15,-45.1 -109.72,-88.49 -167.02,-129.48 -57.27,-40.99 -116.29,-79.64 -177.46,-114.57 -61.17,-34.82 -124.56,-66.06 -190.62,-90.47 -65.94,-24.26 -134.91,-41.92 -205.22,-45.52 -18.66,-0.93 -37.37,-0.81 -56.02,0.51 -0.48,0.06 -0.93,0.15 -1.41,0.21 -35.32,6.45 -69.84,17.69 -101.86,33.92 -32.09,16.15 -61.624,37.24 -87.737,61.88 -13.11,12.33 -25.34,25.49 -36.797,39.35 -5.723,6.92 -11.274,14.03 -16.582,21.26 -2.664,3.62 -5.305,7.28 -7.852,10.97 -1.144,1.59 -2.25,3.21 -3.238,4.89 v 5.94 c 0,0.18 -0.067,0.35 -0.215,0.47 l -3.117,2.94 v 2.28 c 0,0.18 -0.059,0.36 -0.207,0.48 l -1.739,1.65 c -0.035,0.03 -0.062,0.06 -0.097,0.06 -0.028,0.03 -0.055,0.06 -0.117,0.09 -0.028,0 -0.055,0 -0.118,0.03 h -0.242 c -0.058,-0.03 -0.09,-0.03 -0.117,-0.03 -0.059,-0.03 -0.094,-0.06 -0.121,-0.09 -0.031,0 -0.063,-0.03 -0.09,-0.06 l -1.742,-1.65 c -0.117,-0.12 -0.211,-0.3 -0.211,-0.48 v -2.28 l -3.117,-2.94 c -0.149,-0.12 -0.207,-0.29 -0.207,-0.47 v -1.35 l -10.883,1.86 v 0.15 c 0,0.41 -0.332,0.75 -0.754,0.75 -0.363,0 -0.629,-0.27 -0.687,-0.63 h -0.032 l -15.531,2.66 v 0.66 c 0,0.21 -0.062,0.36 -0.211,0.48 l -3.148,3 v 2.28 c 0,0.21 -0.09,0.36 -0.211,0.48 l -1.774,1.68 c -0.023,0.03 -0.054,0.03 -0.086,0.06 -0.027,0.03 -0.058,0.06 -0.121,0.09 h -0.09 c -0.058,0.03 -0.121,0.03 -0.148,0.03 h -0.117 c -0.031,-0.03 -0.094,-0.03 -0.153,-0.03 -0.031,-0.03 -0.058,-0.06 -0.089,-0.09 -0.028,0 -0.063,-0.03 -0.09,-0.06 l -1.77,-1.68 c -0.117,-0.12 -0.207,-0.27 -0.207,-0.48 v -2.28 l -1.41,-1.31 c -0.152,0.11 -0.332,0.2 -0.539,0.2 -0.422,0 -0.75,-0.33 -0.75,-0.75 v -0.72 l -0.449,-0.42 c -0.157,-0.12 -0.211,-0.27 -0.211,-0.48 v -12.23 l -1.774,-5.76 c -1.976,-6.23 -4.015,-12.44 -6.144,-18.62 -4.289,-12.35 -8.848,-24.59 -13.731,-36.73 -9.781,-24.26 -20.601,-48.1 -33.047,-71.1 -12.414,-23 -26.242,-45.28 -41.953,-66.15 -15.8,-20.78 -33.554,-40.18 -53.793,-56.58 0,0 0,0 0,-0.03 -0.66,-0.54 -0.754,-1.5 -0.211,-2.19 0.536,-0.66 1.528,-0.75 2.192,-0.21 4.976,4.14 9.832,8.43 14.512,12.89 v -17 c -3.149,-0.57 -6.325,-1.17 -9.477,-1.74 l 3.57,-20.87 c 44.618,6.63 89.27,13.14 133.946,19.49 v -6.77 c 0,-0.12 0.031,-0.24 0.093,-0.36 l 0.895,-1.5 v -59.14 h -0.988 c -0.36,0 -0.657,-0.3 -0.657,-0.65 v -11.19 h -4.203 c -0.355,0 -0.66,-0.3 -0.66,-0.66 v -2.67 c -11.363,-0.73 -22.098,-1.41 -32.016,-2.01 -62.812,-4.41 -96.312,-6.76 -96.312,-6.76 -5.961,-0.42 -10.855,-5.61 -11.246,-12.28 h 134.75 83.238 1296.36 180.53 6.31 266.64 85.01 5.48 92.34 92.72 34.23 92.72 97.82 61.53 324.85 73.91 175.04 175.09 66.87 111.97 127.54 72.92 59.01 223.4 53.9 5.11 99.89 15.32 47.91 18.33 41.23 6.64 13.23 5.11 47.88 18.36 47.88 5.1 13.22 6.65 41.23 18.34 47.9 15.32 99.9 5.1 32.75 130.63 53.72 130.63 37.85 23.66 31.63 170.9 43.12 332.59 97.77 65.21 65.22 65.22 65.21 65.22 65.22 10.05 70.67 14.08 103.7 13.98 42.15 61.6 14.06 30.09 244.58 25.05 64.86 105.14 150.2 61.32 1452.83 53.27 c -0.39,12.42 -9.27,22.74 -20.87,23.53" style="fill:url(#radialGradient484);fill-opacity:1;fill-rule:nonzero;stroke:none" id="path486" transform="matrix(0.099136, 0, 0, -0.099136, -163.304153, 639.064636)"/>
</svg>